<svg id="Layer_16_copy" data-name="Layer 16 copy" xmlns="http://www.w3.org/2000/svg" viewBox="0 0 963.82 1040.36"><defs><style>.cls-1{fill:#ffda00;opacity:0.74;}.cls-2,.cls-3{fill:#FFFFFF;}.cls-3{font-size:75px;font-family:BerlinSansFB-Reg, Berlin Sans FB;}</style></defs><path class="cls-1" d="M1005,252.63" transform="translate(-508.35 -20.8)"/><path class="cls-1" d="M1043.22,237.34" transform="translate(-508.35 -20.8)"/><path class="cls-2" d="M962.51,511.47c4.28-36.34,12.27-258.9,3-261.75s-37,145.36-47.74,145.36,17.82-155.34,7.84-159.61C893,252.63,846.52,373,835.83,368.71s30.37-122.95,72-181c-44.22,7.63-118.86,100.47-130.26,94.77,33-113.33,123.13-140.37,116-148.92s-124.6,31.33-114,20.66c74.22-74.77,146.07-64.84,154.62-73.39s-28.5-50.59-21.37-59.14S966.69,68,976.2,70.15s13.54-47.58,23.52-48.45,0,45.6,11.4,47.74,46.31-31.35,55.58-27.79-6,35.84-12.12,48.45c15.41,2.61,101.51,7.34,140.53,77.25-5.3,8.15-84.66-42.27-114.44-35.35,83,55.64,111.32,145.27,108.44,175.31-42.87-53.38-37.58-89.17-112.56-111.6,24.87,46.7,61.6,152.52,46.73,183-30-14.9-16.77-111.63-80.06-141.35,11.67,74,16.06,159.74,1.1,164.72s-9.93-134.91-39.3-149.43c-10.3-5.1-6.88,251-6.88,251" transform="translate(-508.35 -20.8)"/><path class="cls-2" d="M1174.14,457.45c-71.42-74.83-222.21,97.5-261.89,121.31,0,15.87-2.26,21.54,27.21,21.54C986.32,569.69,1072.11,445,1174.14,457.45Z" transform="translate(-508.35 -20.8)"/><ellipse class="cls-2" cx="915.87" cy="592.8" rx="14.26" ry="55.85" transform="translate(-659.27 800.45) rotate(-45)"/><rect class="cls-2" x="870.36" y="575.16" width="27.9" height="82.33" rx="11.33" transform="translate(301.78 -479.81) rotate(51.18)"/><path class="cls-2" d="M784.66,446.68c76.91-69.17,226.15,113.12,263.91,139.88-1.21,15.83.62,21.65-28.77,19.41C975.4,571.88,887.35,442,784.66,446.68Z" transform="translate(-508.35 -20.8)"/><ellipse class="cls-2" cx="1043.89" cy="600.28" rx="55.85" ry="14.26" transform="translate(-647.56 803.83) rotate(-40.64)"/><rect class="cls-2" x="1059.62" y="584.97" width="27.9" height="82.33" rx="11.33" transform="translate(1756.45 251.02) rotate(133.18)"/><rect class="cls-2" x="446.72" y="461.11" width="51.83" height="42.62"/><path class="cls-2" d="M609.86,457.45S651.3,434.79,651,405.87s-31,32.5-37.26,32.2.59-25.34-17.59-50.38C572,413.92,609.86,457.45,609.86,457.45Z" transform="translate(-508.35 -20.8)"/><path class="cls-2" d="M601.34,535.44c5.25-3.05,37.2-22.94,32.82-52a1.07,1.07,0,0,0-1.15-.92c-8,1-22.83,23.64-27.06,30.34a1.08,1.08,0,0,1-1.93-.18c-2.62-6.8-11.79-29.3-24.66-46.95a1.09,1.09,0,0,0-1.73,0c-20.51,24.84,17.2,64.37,22.4,69.6A1.08,1.08,0,0,0,601.34,535.44Z" transform="translate(-508.35 -20.8)"/><path class="cls-2" d="M609,597.4s36.54-26.46,23-74.52c-16.38,12.71-25.74,43.2-25.74,43.2s-21.6-38.37-34-45a.7.7,0,0,0-1,.39C557.94,563.43,609,597.4,609,597.4Z" transform="translate(-508.35 -20.8)"/><path class="cls-2" d="M638.32,585.52" transform="translate(-508.35 -20.8)"/><path class="cls-2" d="M632.71,667.35c2-3.35,22.3-39.76,5.76-81.46a.3.3,0,0,0-.46-.12c-21.5,17.71-6.21,51.58-14.09,49.79S610.29,608.8,579,583a.29.29,0,0,0-.48.21c-2,47.83,49.83,81.71,53.79,84.23A.27.27,0,0,0,632.71,667.35Z" transform="translate(-508.35 -20.8)"/><path class="cls-2" d="M658.12,736.24s25.2-37.44,0-79.2c-17,13.92-9.16,50.16-13.22,50.4s-13.81-26.39-47.27-43a.33.33,0,0,0-.47.29C597.2,711.7,658.12,736.24,658.12,736.24Z" transform="translate(-508.35 -20.8)"/><path class="cls-2" d="M695.08,789c3.14-.63,18.48-39.88-9.84-79.44-4.56,4.08-13.44,31.68-7.48,49.12-5,3.62-11.91-16.57-50.18-32.15a.27.27,0,0,0-.37.27C632.11,770.93,690.3,790,695.08,789Z" transform="translate(-508.35 -20.8)"/><path class="cls-2" d="M743.05,838.23c4.21-6.73,9.61-40.5-25.45-74.07-12.47,30.14,12.53,49.76,4.18,52.42s-7.25-12.87-55.84-24a.84.84,0,0,0-1,1C674.89,834.12,730.64,839,743.05,838.23Z" transform="translate(-508.35 -20.8)"/><path class="cls-2" d="M797.93,873.17c-3.95-13.41,1.89-35.17-41.41-69.25-2.72,45.12,18,39.36,16.56,51.12-22.08,3.84-6.72-15.12-63.36-12.72,10.9,32.22,79.32,36.14,88,31.39A.44.44,0,0,0,797.93,873.17Z" transform="translate(-508.35 -20.8)"/><path class="cls-2" d="M860.84,896c-3.94-13.35-5.33-35.73-53.78-61.93a.47.47,0,0,0-.68.38c-2.36,43.88,24.47,38.81,23.64,50a.49.49,0,0,1-.39.42c-21.43,3.6-4.48-11-62.16,1a.46.46,0,0,0-.23.78c37.81,36.88,84.75,14.51,93.39,9.79A.44.44,0,0,0,860.84,896Z" transform="translate(-508.35 -20.8)"/><path class="cls-2" d="M627.1,397.66c1.61-3.17,3.89-9.09,6.36-15.57,3.25-8.67,6.83-18.34,8.54-24.41,7.21-26,6.49-44,6.59-57.44-12,15.37-21.11,30-24.72,52.61a143.16,143.16,0,0,0-1.1,26.68" transform="translate(-508.35 -20.8)"/><path class="cls-2" d="M1367.09,456.45s-41.44-22.66-41.14-51.58,31,32.5,37.26,32.2-.59-25.34,17.59-50.38C1405,412.92,1367.09,456.45,1367.09,456.45Z" transform="translate(-508.35 -20.8)"/><path class="cls-2" d="M1375.61,534.44c-5.25-3.05-37.2-22.94-32.82-52a1.06,1.06,0,0,1,1.15-.92c8,1,22.83,23.64,27.06,30.34a1.08,1.08,0,0,0,1.92-.18c2.63-6.8,11.79-29.3,24.66-46.95a1.09,1.09,0,0,1,1.73,0c20.52,24.84-17.2,64.37-22.4,69.6A1.06,1.06,0,0,1,1375.61,534.44Z" transform="translate(-508.35 -20.8)"/><path class="cls-2" d="M1368,596.4s-36.54-26.46-23-74.52c16.38,12.71,25.74,43.2,25.74,43.2s21.6-38.37,34-45a.7.7,0,0,1,1,.39C1419,562.43,1368,596.4,1368,596.4Z" transform="translate(-508.35 -20.8)"/><path class="cls-2" d="M1338.63,584.52" transform="translate(-508.35 -20.8)"/><path class="cls-2" d="M1344.24,666.35c-2-3.35-22.3-39.76-5.76-81.46a.3.3,0,0,1,.46-.12c21.5,17.71,6.2,51.58,14.09,49.79s13.62-26.76,44.91-52.55a.29.29,0,0,1,.47.21c2,47.83-49.82,81.71-53.78,84.23A.27.27,0,0,1,1344.24,666.35Z" transform="translate(-508.35 -20.8)"/><path class="cls-2" d="M1318.83,735.24s-25.2-37.44,0-79.2c17,13.92,9.15,50.16,13.22,50.4s13.81-26.39,47.27-43a.33.33,0,0,1,.47.29C1379.75,710.7,1318.83,735.24,1318.83,735.24Z" transform="translate(-508.35 -20.8)"/><path class="cls-2" d="M1281.87,788c-3.14-.63-18.48-39.88,9.84-79.44,4.56,4.08,13.44,31.68,7.48,49.12,5,3.62,11.91-16.57,50.18-32.15a.27.27,0,0,1,.37.27C1344.84,769.93,1286.65,789,1281.87,788Z" transform="translate(-508.35 -20.8)"/><path class="cls-2" d="M1233.9,837.23c-4.22-6.73-9.61-40.5,25.45-74.07,12.46,30.14-12.53,49.76-4.18,52.42s7.25-12.87,55.84-24a.84.84,0,0,1,1,1C1302.06,833.12,1246.3,838,1233.9,837.23Z" transform="translate(-508.35 -20.8)"/><path class="cls-2" d="M1179,872.17c4-13.41-1.89-35.17,41.42-69.25,2.72,45.12-18,39.36-16.56,51.12,22.08,3.84,6.72-15.12,63.36-12.72-10.9,32.22-79.32,36.14-88,31.39A.46.46,0,0,1,1179,872.17Z" transform="translate(-508.35 -20.8)"/><path class="cls-2" d="M1116.1,895c3.94-13.35,5.33-35.73,53.79-61.93a.47.47,0,0,1,.68.38c2.35,43.88-24.47,38.81-23.64,50a.49.49,0,0,0,.39.42c21.43,3.6,4.48-11,62.16,1a.46.46,0,0,1,.23.78c-37.82,36.88-84.75,14.51-93.39,9.79A.44.44,0,0,1,1116.1,895Z" transform="translate(-508.35 -20.8)"/><path class="cls-2" d="M1349.85,396.66c-1.62-3.17-3.89-9.09-6.36-15.57-3.26-8.67-6.83-18.34-8.54-24.41-7.21-26-6.49-44-6.59-57.44,12,15.37,21.11,30,24.72,52.61a143.16,143.16,0,0,1,1.1,26.68" transform="translate(-508.35 -20.8)"/><path class="cls-2" d="M556.8,477.26H515.11s47.46-239.92,225.53-309.63C562.57,307.56,556.8,477.26,556.8,477.26Z" transform="translate(-508.35 -20.8)"/><path class="cls-2" d="M1415,477.26h41.68s-47.46-239.92-225.53-309.63C1409.18,307.56,1415,477.26,1415,477.26Z" transform="translate(-508.35 -20.8)"/><text class="cls-3" transform="translate(343.75 951.45)">Maalam</text><path class="cls-2" d="M560.12,538.84q-1.2-.89-3.68-2.48a34.21,34.21,0,0,1-3.27-1.83.68.68,0,0,1-.29-.64s.58-1.15,1.75-3.53a18.68,18.68,0,0,0,2-6q.71-7-5.6-7.63-3.49-.35-6.6,4.29-5.22,7.8-6,8.61a13.3,13.3,0,0,1-11.31,3.82,16.26,16.26,0,0,1-13-8.11q-3.92-6.5-3-15.31c.27-2.74.73-4.18,1.37-4.32,1,0,2.46-.08,4.39-.25q1.2-.18,3.6-.6a1.94,1.94,0,0,1,.67,0c.37,0,.53.24.49.62-.06.61-.22,1.53-.48,2.77s-.41,2.18-.48,2.82q-1.17,11.77,6.6,12.56c2.54.26,4.91-1.11,7.09-4.08,4-5.44,6-8.22,6.15-8.33a13.18,13.18,0,0,1,11.14-3.72q7.23.72,11.13,5.8,3.75,5,3,12.13a28.41,28.41,0,0,1-1.71,6.89,19.49,19.49,0,0,1-3.38,6.19A1.47,1.47,0,0,1,560.12,538.84Z" transform="translate(-508.35 -20.8)"/><path class="cls-2" d="M508.82,590.1c-.32,0-.47-.31-.47-.92s0-1.19.14-2.12.13-1.64.13-2.12,0-1.21-.1-2.18-.1-1.69-.1-2.18q0-1.07,5.95-2.68t6-3.33c.06-1,.1-3.4.13-7.37l.05-6c0-4.2,0-6.6,0-7.18q-.1-1.38-6-3t-5.88-2.44l.07-8.59c0-.51.18-.77.55-.76a6.5,6.5,0,0,1,1.75.55l26.13,9.56q3.15,1.21,18.2,7.33,2.49,1.1,7.53,3c1,.32,1.48.65,1.47,1a15.9,15.9,0,0,1-.21,2.14,15.79,15.79,0,0,0-.21,2.13,13.66,13.66,0,0,0,.2,2.09,16.79,16.79,0,0,1,.2,2c0,.23-.49.55-1.46,1q-2.19.9-23.65,8.86Q509.09,590.11,508.82,590.1Zm21.72-17.63q1.14,0,10.2-3.36,8.78-3.25,11.53-4.6-20.58-8.09-21.56-8.08c-.89,0-1.42,1-1.59,2.89,0,.1,0,1.35-.07,3.74l0,3.94Q529,572.46,530.54,572.47Z" transform="translate(-508.35 -20.8)"/><path class="cls-2" d="M567,636.2q-4.51.45-13.56,1t-13.55,1c-1,.1-2.46.26-4.42.49l-4.37.48q-8.13.83-11.43-.34-5.06-1.8-7.43-8.2a46.93,46.93,0,0,1-2.2-11.25q-1.35-13.3,2.74-17.91,3.18-3.54,13.69-4.61l4.34-.4,4.81-.44q4.59-.46,16.88-2.1c2.13-.21,5.3-.65,9.5-1.3l.62-.1c.54-.06.85.24.92.9.1,1,.23,2.45.38,4.22.19,2.06.31,3.45.39,4.19.06.58-.15.9-.61.94q-5.93.6-17.81,1.55t-17.8,1.56q-6.69.68-8.77,3.84-1.85,2.71-1.17,9.45c.41,4.08,1.28,6.92,2.59,8.53q2.47,3,8.35,2.46,6.15-.63,18.44-2.06T566,626.05c.42,0,.71.3.89,1a10.88,10.88,0,0,1,.23,2.28c0,1.17,0,1.73,0,1.68,0,.46.15,1.15.32,2.06s.28,1.61.33,2.06C567.86,635.8,567.61,636.14,567,636.2Z" transform="translate(-508.35 -20.8)"/><path class="cls-2" d="M552.14,693.31a30.46,30.46,0,0,1-19.87-1.95q-9.91-4.65-12.12-14.81-.42-1.93-1.11-5.87t-1.12-5.88q-.37-1.75-1.29-5.25c-.61-2.33-1-4.08-1.3-5.25a.86.86,0,0,1,.76-1.14q4.15-.9,12.64-2.41t12.68-2.41q4.43-1,13.27-3.18T568,642c.53-.11.87.15,1,.8.2.92.48,2.3.85,4.13s.66,3.22.86,4.14.47,2.13.88,3.87.7,3.05.89,4q2.81,13-.83,20.39a23.94,23.94,0,0,1-8.14,9.15A31.24,31.24,0,0,1,552.14,693.31Zm-2-9.14q8.26-1.8,12.46-7.51,4.35-5.94,2.63-13.93c-1-4.41-1.32-6.19-1.08-5.36q-1.18-4.32-2.59-4c-2,.42-4.91,1-8.84,1.77s-6.88,1.36-8.84,1.78-4.83,1.09-8.68,2-6.75,1.59-8.69,2c-1,.21-1.2,1.83-.71,4.85-.06-.41.35,1.41,1.22,5.44a21.35,21.35,0,0,0,2.39,6.63,13.32,13.32,0,0,0,5.47,4.72A22.54,22.54,0,0,0,550.16,684.17Z" transform="translate(-508.35 -20.8)"/><path class="cls-2" d="M531.76,717.4c-.52.16-.89-.12-1.1-.83-.13-.44-.3-1.12-.49-2s-.36-1.61-.49-2-.38-1.14-.73-2-.58-1.54-.71-2a.82.82,0,0,1,.59-1.17q4.26-1.27,13-3.46t13-3.48q4.15-1.25,12.38-4.12t12.38-4.12c.63-.18,1,0,1.19.56s.31,1.19.52,2.16.39,1.7.53,2.19.37,1.09.71,2,.57,1.5.7,1.94c.19.63,0,1-.46,1.17q-4.2,1.26-12.68,3.48t-12.67,3.47c-2.88.86-7.15,2.25-12.84,4.17S534.63,716.54,531.76,717.4Z" transform="translate(-508.35 -20.8)"/><path class="cls-2" d="M565.74,782.65a2.41,2.41,0,0,1-1.5-.15q-11.06-3.37-15.37-13.5-4.5-10.54.69-20.23,4.82-9,15.82-13.72t21-1.85a22.39,22.39,0,0,1,15.19,13.5q4.55,10.65-.34,19.63a2.58,2.58,0,0,1-1,1.09c-.41.18-1.88.07-4.41-.32s-3.85-.71-4-1,.15-1.27.84-2.9a20.8,20.8,0,0,0,1.58-5.28,14.2,14.2,0,0,0-1.09-7.43,13.61,13.61,0,0,0-10-8.51q-6.33-1.37-13.7,1.78t-10.88,8.67a13.45,13.45,0,0,0-1,13.16,14.7,14.7,0,0,0,4.6,5.89,21.42,21.42,0,0,0,5.1,2.89,13.35,13.35,0,0,1,2.61,1.25A17.54,17.54,0,0,1,568,779.2,18.57,18.57,0,0,1,565.74,782.65Z" transform="translate(-508.35 -20.8)"/><path class="cls-2" d="M585.17,820.83a7.51,7.51,0,0,1-1.73.59l-1.78.5c-.86.38-2.15.88-3.86,1.49a.91.91,0,0,1-1.09-.53,11.68,11.68,0,0,1-.56-1.35,107.58,107.58,0,0,0-6.35-13.12c-.89-1.63-2.27-4.07-4.16-7.31s-3.26-5.67-4.15-7.3q-.62-1.11.39-1.65,3.84-2.1,11.78-5.88t11.78-5.87q3.91-2.14,14.38-8.36,2.71-1.56,8-4.84l.47-.29c.51-.31.93-.16,1.26.44.85,1.56,2.09,3.94,3.7,7.12s2.85,5.55,3.7,7.12,2.09,3.71,3.81,6.65,3,5.15,3.8,6.65c.57,1.05.55,1.8-.07,2.25a60.81,60.81,0,0,1-5.24,3.78.78.78,0,0,1-1.2-.31q-1.54-2.85-4.38-8.82t-4.41-8.88c-1-1.84-1.88-2.85-2.65-3.06s-2.14.23-4.14,1.32L597.36,784a17.77,17.77,0,0,0-2.38,1.43,1.8,1.8,0,0,0-.12,2.33c.15.27.37.64.66,1.12l.62,1.14q3.58,6.57,6.67,11.68c.79,1.34,1.78,2.88,3,4.64a.63.63,0,0,1-.24,1,36.65,36.65,0,0,1-3.5,1.58c-1.6.66-2.78,1.19-3.53,1.6-.42.23-.81,0-1.17-.67-.15-.26-.61-1.3-1.39-3.11q-.81-2-4.4-8.57-3-5.53-3.95-6.93a1.76,1.76,0,0,0-2.29-.76c.17-.07-.7.43-2.62,1.47l-5.09,2.77q-3.57,1.95-3.87,3.51-.27,1.23,1.56,4.58l2,3.67q1.29,2.35,8,12.74l.31.48C586,820.12,585.78,820.5,585.17,820.83Z" transform="translate(-508.35 -20.8)"/><path class="cls-2" d="M654.82,841.66q-3.71,2.57-11.33,7.47t-11.36,7.5Q628.62,859,621.67,864t-10.45,7.33c-.71.49-1.24.47-1.61,0-.21-.32-.51-.81-.88-1.48a16,16,0,0,0-.88-1.48c-.23-.34-.62-.83-1.16-1.48s-.93-1.13-1.16-1.47-.22-1.07.12-2.08q4.67-13.26,13.66-39.9,1.35-4.1,1.44-4.66c-.15-.21-.66,0-1.54.6q-5,3.44-14.76,10.45t-14.76,10.45c-.71.49-1.21.53-1.5.11s-.59-.92-1-1.7-.79-1.34-1-1.7-.69-.91-1.26-1.61-1-1.24-1.26-1.62-.33-.93.1-1.23q3.52-2.45,10.88-7.05t10.92-7.07q3.88-2.69,13.82-10,2.59-1.87,7.69-5.79l.4-.32c.31-.24.65-.11,1,.4q1.44,2,2.34,3.12c.23.27.7.77,1.41,1.48a12.23,12.23,0,0,1,1.33,1.5c.13.19,0,.73-.26,1.62q-5.16,14.26-14.92,43c-.25.82-.45,1.56-.59,2.22a63.56,63.56,0,0,0,6.32-4.05q4.18-2.89,12.33-9t12.3-9c.71-.49,1.21-.52,1.5-.11s.62,1,1.09,1.78.83,1.41,1.09,1.78.72,1,1.33,1.73,1.06,1.32,1.34,1.72A.74.74,0,0,1,654.82,841.66Z" transform="translate(-508.35 -20.8)"/><path class="cls-2" d="M677.05,877.37c-.51.44-.92.49-1.22.14q-.69-.81-8.46-10.56-9.27,7.51-14.72,12.21-3.4,2.94-10,9.05t-10,9c-.41.36-.86.26-1.34-.3-.3-.35-.73-.9-1.29-1.67s-1-1.33-1.3-1.7-.79-.85-1.46-1.51-1.16-1.17-1.46-1.52a.85.85,0,0,1,.12-1.36q3.38-2.91,10.39-8.46t10.41-8.49q5.28-4.53,14.22-12.79-6.9-7.07-9.89-10.53c-.2-.24-.2-.44,0-.61a8.76,8.76,0,0,1,1.76-1.06l1.87-1a30,30,0,0,1,3.22-2.07.67.67,0,0,1,.81.16l.27.37q8.2,10.79,11,14.06,2.49,2.89,8.59,9.09a39.8,39.8,0,0,0,3.51,3.48c.43.5.49.93.19,1.3a24,24,0,0,0-2.93,2.41c-.25.22-.63.6-1.12,1.12S677.33,877.13,677.05,877.37Z" transform="translate(-508.35 -20.8)"/><path class="cls-2" d="M677.86,933.4a7.74,7.74,0,0,1-1.47,1.08l-1.55,1c-.71.62-1.79,1.48-3.25,2.57a.91.91,0,0,1-1.2-.18,14.31,14.31,0,0,1-.93-1.13,109.38,109.38,0,0,0-10-10.63c-1.34-1.3-3.38-3.21-6.14-5.74s-4.81-4.45-6.15-5.74c-.6-.59-.64-1.15-.11-1.69q3-3.15,9.5-9.12t9.5-9.11q3.1-3.19,11.24-12.25,2.13-2.3,6.21-7l.35-.42c.4-.45.85-.43,1.34,0,1.28,1.25,3.16,3.14,5.65,5.7s4.37,4.46,5.65,5.7,3.1,2.93,5.61,5.22,4.38,4,5.61,5.22c.86.83,1.06,1.55.61,2.17a63.48,63.48,0,0,1-3.89,5.16.77.77,0,0,1-1.23.06q-2.34-2.26-6.8-7.11T689.59,890c-1.5-1.46-2.65-2.17-3.44-2.14s-2,.86-3.56,2.49l-4.05,4.19a16.19,16.19,0,0,0-1.85,2.07,1.77,1.77,0,0,0,.58,2.25c.22.21.54.51,1,.88l.93.9q5.37,5.22,9.84,9.17c1.16,1,2.56,2.22,4.23,3.54a.64.64,0,0,1,.08,1.07,38.33,38.33,0,0,1-2.87,2.55,36.65,36.65,0,0,0-2.9,2.58c-.33.34-.77.24-1.31-.29-.22-.21-1-1.07-2.25-2.57q-1.38-1.65-6.75-6.87c-3-2.92-5-4.74-5.84-5.44a1.75,1.75,0,0,0-2.41,0,29.46,29.46,0,0,1-2.07,2.19l-4,4.16q-2.82,2.91-2.66,4.5c.08.83,1,2.14,2.86,3.91l3,2.9q1.92,1.86,11.43,9.77l.44.38C678.39,932.48,678.35,932.89,677.86,933.4Z" transform="translate(-508.35 -20.8)"/><path class="cls-2" d="M711.87,970.64c-.13.17-.36.12-.68-.13s-.93-.79-1.66-1.47-1.28-1.17-1.66-1.47-1.06-.8-1.94-1.4-1.52-1.06-1.94-1.39a1.45,1.45,0,0,1-.44-1.6q.71-2.85,4.81-17.21a3.21,3.21,0,0,0-1.11-3.09c-.25-.22-1.14-1-2.7-2.19q-4.12-3.29-5-3.78c-.47-.27-1.09.08-1.87,1.06-1.13,1.43-2.77,3.62-4.9,6.57s-3.77,5.13-4.88,6.53c-.35.43-.72.49-1.11.17a22.45,22.45,0,0,1-1.7-1.57c-.74-.74-1.31-1.27-1.73-1.61s-.88-.65-1.63-1.14-1.29-.88-1.63-1.15a.81.81,0,0,1-.19-1.29q2.72-3.4,8.44-10t8.43-10q7.69-9.66,15.72-21.17l.36-.51c.31-.42.89-.3,1.74.38q2.58,2.06,7.81,6t7.78,6q6.63,5.28,8.06,11.71,1.57,7.11-3.66,13.68a22.17,22.17,0,0,1-6.87,6.18,17.72,17.72,0,0,1-8.82,1.53,1.34,1.34,0,0,0-1.18.31q-.35.42-2.9,11T711.87,970.64Zm13.88-34.27q4.41-5.54,2.79-9.88-1.21-3.21-7.19-8-4.85-3.85-5.56-3.13-1.53,1.49-7.25,8.68l-4.65,5.84a1.84,1.84,0,0,0,.29.43c.33.33.88.85,1.64,1.56,1.82,1.61,3.82,3.28,6,5Q720.08,943.49,725.75,936.37Z" transform="translate(-508.35 -20.8)"/><path class="cls-2" d="M791.66,965.45a.69.69,0,0,1-1.07.23q-2.57-1.5-8.26-5.24Q777,957,774,955.3l-2.42-1.38a25.57,25.57,0,0,0-2.5-1.32c-.55-.08-1.18.5-1.91,1.74l-4.75,8.13c-.9,1.53-1,2.48-.39,2.86q3.19,1.86,9.82,5.34t9.82,5.33c.47.27.59.59.38,1s-.58.93-1.08,1.66-.86,1.27-1.08,1.65-.57,1-1,1.88-.77,1.47-1,1.88-.47.27-.93,0c-1.52-.89-3.79-2.28-6.83-4.18s-5.32-3.29-6.86-4.19q-4.25-2.49-4.85-2.75c-1.06-.47-1.8-.34-2.22.38q-1.77,3-5.16,9.21t-5.17,9.21c-.39.67-.86.86-1.38.55a21.89,21.89,0,0,1-1.88-1.3,21.9,21.9,0,0,0-1.9-1.32c-.38-.22-1-.52-1.78-.9s-1.4-.69-1.77-.9q-.82-.5-.39-1.23,2.19-3.75,6.91-11.09t6.91-11.09q2-3.48,12.53-23l.26-.44c.25-.48.69-.59,1.3-.33l4.13,2.56q5.12,3.12,9.57,5.64,6,3.43,15.6,8.22a1.34,1.34,0,0,1,.76,1.94,30.47,30.47,0,0,0-1.48,2.85A35,35,0,0,1,791.66,965.45Z" transform="translate(-508.35 -20.8)"/><path class="cls-2" d="M833,1005.51a29.47,29.47,0,0,1-14.73,15.33,24.73,24.73,0,0,1-34.38-15.21A31,31,0,0,1,800.2,969.1a24.49,24.49,0,0,1,34.26,15.19A29.4,29.4,0,0,1,833,1005.51Zm-8.36-3.84a20.35,20.35,0,0,0,1.14-14.08A15.13,15.13,0,0,0,817,977.12a14.9,14.9,0,0,0-13.57.65,21.73,21.73,0,0,0-10.83,24.42,15,15,0,0,0,8.63,10.5,15.17,15.17,0,0,0,13.72-.59A20.77,20.77,0,0,0,824.66,1001.67Z" transform="translate(-508.35 -20.8)"/><path class="cls-2" d="M871.25,1045.72c-.06.2-.29.24-.68.12s-1.15-.4-2.08-.77-1.62-.62-2.08-.76-1.29-.36-2.32-.59-1.8-.44-2.31-.6a1.44,1.44,0,0,1-1-1.32q-.39-2.91-1.8-17.78a3.18,3.18,0,0,0-2.16-2.47c-.3-.12-1.41-.48-3.31-1.06-3.35-1-5.37-1.6-6-1.7s-1,.48-1.35,1.67q-.81,2.63-2.18,7.9t-2.16,7.87c-.17.52-.49.71-1,.56s-1.2-.44-2.15-.85a22.13,22.13,0,0,0-2.2-.86c-.41-.13-1.05-.29-1.93-.47s-1.52-.35-1.93-.48A.82.82,0,0,1,832,1033q1.27-4.14,4.23-12.34t4.22-12.35q3.65-11.81,6.93-25.44l.15-.61c.13-.51.71-.6,1.76-.28q3.13,1,9.45,2.74t9.42,2.71q8.1,2.51,11.77,8,4.05,6,1.58,14.07a22.24,22.24,0,0,1-4.15,8.26,17.57,17.57,0,0,1-7.66,4.63c-.56.18-.89.42-1,.72s.32,4.11,1.3,11.29S871.37,1045.32,871.25,1045.72Zm.45-37q2.09-6.76-1-10.21-2.3-2.55-9.59-4.8c-4-1.22-6.06-1.51-6.33-.89q-.87,1.95-3.58,10.72l-2.2,7.14a1.6,1.6,0,0,0,.43.3c.42.18,1.12.47,2.09.85,2.28.84,4.75,1.67,7.43,2.49Q869,1017.45,871.7,1008.74Z" transform="translate(-508.35 -20.8)"/><path class="cls-2" d="M943.43,1049.7a2.5,2.5,0,0,1-.92,1.21q-8.65,7.63-19.55,6-11.33-1.7-16.87-11.17-5.18-8.83-3.42-20.67t9.4-18.84a22.36,22.36,0,0,1,19.45-5.89q11.46,1.7,16.55,10.56a2.48,2.48,0,0,1,.4,1.45c-.06.44-.92,1.63-2.58,3.59s-2.62,2.91-2.9,2.87-1-.8-2-2.24a20.69,20.69,0,0,0-3.68-4.11,14.22,14.22,0,0,0-6.89-3,13.63,13.63,0,0,0-12.51,4.11q-4.49,4.68-5.66,12.6t1.7,13.82a13.44,13.44,0,0,0,10.7,7.71,14.78,14.78,0,0,0,7.43-.83,22.1,22.1,0,0,0,5.13-2.83,13.25,13.25,0,0,1,2.44-1.58,17.44,17.44,0,0,1,2,3.45A19.6,19.6,0,0,1,943.43,1049.7Z" transform="translate(-508.35 -20.8)"/><path class="cls-2" d="M996.53,1007.15q-.19,4.53-1,13.56t-1,13.55c-.05,1-.1,2.47-.16,4.44s-.12,3.43-.16,4.39q-.37,8.17-2,11.27-2.5,4.74-9.19,6.16a47.88,47.88,0,0,1-11.46.54q-13.35-.6-17.31-5.32-3-3.66-2.57-14.2c0-.86.11-2.32.23-4.36s.2-3.65.26-4.82q.19-4.6.38-17c.1-2.14.12-5.33.09-9.59a4.66,4.66,0,0,1,0-.63c0-.54.36-.8,1-.77,1,0,2.46.12,4.24.23l4.19.23c.59,0,.87.27.85.74q-.27,5.94-1,17.84t-1.05,17.84q-.3,6.72,2.53,9.24c1.62,1.48,4.67,2.32,9.18,2.52q6.14.29,8.81-1.32c2.26-1.34,3.47-4,3.65-7.9q.27-6.18.64-18.55t.64-18.54c0-.42.4-.66,1.15-.73a10.63,10.63,0,0,1,2.28.1l1.68.23c.46,0,1.15,0,2.08,0s1.63,0,2.09,0C996.25,1006.27,996.56,1006.57,996.53,1007.15Z" transform="translate(-508.35 -20.8)"/><path class="cls-2" d="M1040.66,1049.53a36,36,0,0,1-.05,7.8,1.28,1.28,0,0,1-1.25,1.23q-2.82.18-8.49.24t-8.48.24q-2.67.18-8,.65c-3.52.32-6.18.54-8,.66a.85.85,0,0,1-1-.91q-.3-4.25-.59-12.85t-.58-12.9q-.31-4.51-1.32-13.53t-1.32-13.53c0-.57.26-.88.89-.92.46,0,1.16,0,2.11,0s1.66,0,2.14,0,1.16-.12,2.12-.27,1.67-.23,2.13-.26c.61,0,.93.19,1,.68q.27,4.14.53,12.47t.54,12.5c.1,1.36.24,3.41.42,6.17s.29,4.81.38,6.17c.4,5.77.82,8.64,1.28,8.61q14.05-1,21.18-2.14c.22,0,.8-.17,1.73-.39a9.58,9.58,0,0,1,1.74-.36C1040.34,1048.81,1040.63,1049,1040.66,1049.53Z" transform="translate(-508.35 -20.8)"/><path class="cls-2" d="M1076.29,1004.44c.11.67-.06,1-.52,1.11q-1.05.18-13.42,1.7,1.56,11.82,2.7,18.93.72,4.44,2.47,13.26t2.48,13.27c.08.54-.24.87-1,1-.45.07-1.15.14-2.09.22s-1.65.14-2.13.22-1.14.22-2.06.45-1.6.38-2,.45a.85.85,0,0,1-1.1-.81q-.7-4.41-1.78-13.28t-1.78-13.32q-1.11-6.87-3.46-18.81-9.63,2.19-14.16,2.92c-.3,0-.47-.06-.51-.31a8.84,8.84,0,0,1,0-2.07c.1-1.17.15-1.87.17-2.08a33,33,0,0,1-.08-3.83.68.68,0,0,1,.57-.61l.45,0q13.48-1.35,17.75-2,3.77-.62,12.24-2.57a44.18,44.18,0,0,0,4.8-1.17q1-.16,1.2.51a27.65,27.65,0,0,0,.53,3.76c.06.34.18.85.37,1.55S1076.23,1004.08,1076.29,1004.44Z" transform="translate(-508.35 -20.8)"/><path class="cls-2" d="M1120,986.1q1.18,4.38,3.22,13.2t3.21,13.21c.26,1,.66,2.38,1.2,4.28s.94,3.3,1.19,4.23q2.14,7.89,1.54,11.33-.94,5.28-6.86,8.68a47.26,47.26,0,0,1-10.75,4q-12.9,3.51-18.11.23-4-2.55-6.79-12.74l-1.11-4.22c-.51-2-.92-3.54-1.23-4.67q-1.2-4.46-4.83-16.32-.84-3.09-2.84-9.15c-.11-.29-.18-.49-.21-.59-.14-.53.11-.88.75-1.06,1-.27,2.37-.63,4.1-1.07,2-.52,3.35-.87,4.07-1.07.56-.15.9,0,1,.45q1.56,5.74,4.45,17.31t4.45,17.31q1.76,6.49,5.23,8,3,1.38,9.51-.4c4-1.07,6.62-2.39,8-4,1.73-2,2.09-4.84,1-8.64q-1.62-6-5-17.85t-5-17.86c-.11-.4.18-.75.86-1a10.43,10.43,0,0,1,2.21-.6c1.16-.21,1.71-.31,1.67-.29.44-.12,1.1-.34,2-.66s1.54-.54,2-.66C1119.46,985.35,1119.84,985.54,1120,986.1Z" transform="translate(-508.35 -20.8)"/><path class="cls-2" d="M1183.49,1018.83c.08.2-.07.37-.45.52s-1.15.41-2.1.71-1.65.53-2.1.71-1.23.52-2.18,1-1.68.8-2.18,1a1.46,1.46,0,0,1-1.6-.42q-2.12-2-12.54-12.74c-.7-.73-1.77-.92-3.22-.57-.32.1-1.4.52-3.25,1.25-3.26,1.3-5.19,2.12-5.76,2.46s-.47,1,0,2.15q1,2.54,3.25,7.52c1.5,3.32,2.58,5.81,3.24,7.49a.7.7,0,0,1-.41,1,21.27,21.27,0,0,1-2.21.69c-1,.27-1.75.51-2.25.7s-1,.44-1.8.85-1.4.68-1.8.84a.82.82,0,0,1-1.22-.49c-1.07-2.69-2.55-6.77-4.44-12.27s-3.38-9.57-4.44-12.26q-4.56-11.49-10.54-24.18l-.27-.56q-.33-.72,1.2-1.32,3.06-1.21,9.08-3.8t9-3.77q7.89-3.14,14.17-1.17,6.94,2.16,10,10a22.29,22.29,0,0,1,1.94,9,17.72,17.72,0,0,1-3.07,8.42,1.35,1.35,0,0,0-.32,1.17q.21.51,8.08,8T1183.49,1018.83Zm-22.81-29.1q-2.61-6.59-7.19-7.33-3.37-.55-10.48,2.27-5.74,2.28-5.48,3.27.53,2.05,3.92,10.6l2.75,6.94a1.7,1.7,0,0,0,.52,0c.45-.12,1.17-.34,2.17-.65q3.45-1.17,7.35-2.71Q1164,998.19,1160.68,989.73Z" transform="translate(-508.35 -20.8)"/><path class="cls-2" d="M1219.87,991.66a7.37,7.37,0,0,1,.56,1.74c.25,1,.41,1.58.46,1.79.36.87.83,2.16,1.41,3.89a.91.91,0,0,1-.56,1.08,10.38,10.38,0,0,1-1.36.53,108.56,108.56,0,0,0-13.24,6.08q-2.48,1.28-7.39,4c-3.27,1.81-5.74,3.15-7.39,4a1.07,1.07,0,0,1-1.64-.43q-2-3.89-5.63-11.9c-2.42-5.34-4.29-9.31-5.64-11.9s-4-7.49-8.06-14.54q-1.5-2.74-4.67-8.1l-.29-.47c-.3-.52-.14-.94.47-1.26q2.37-1.23,7.19-3.55t7.19-3.56q2.28-1.19,6.73-3.66t6.73-3.67c1.06-.55,1.81-.51,2.25.11a59.69,59.69,0,0,1,3.66,5.32.77.77,0,0,1-.33,1.19q-2.88,1.49-8.9,4.2t-9,4.23c-1.85,1-2.89,1.83-3.11,2.59s.19,2.15,1.23,4.16l2.68,5.17a16.31,16.31,0,0,0,1.38,2.41,1.78,1.78,0,0,0,2.32.16c.28-.14.65-.35,1.14-.63l1.15-.6q6.65-3.45,11.81-6.43,2-1.14,4.71-2.88a.63.63,0,0,1,1,.25,35.82,35.82,0,0,1,1.51,3.54,38,38,0,0,0,1.53,3.57c.22.41,0,.8-.69,1.15q-.41.21-3.15,1.32-2,.78-8.65,4.22-5.6,2.91-7,3.82a1.76,1.76,0,0,0-.8,2.27c-.06-.18.41.71,1.42,2.65l2.67,5.14c1.24,2.41,2.39,3.72,3.42,4q1.23.29,4.62-1.47l3.71-2q2.37-1.23,12.89-7.75l.5-.3C1219.17,990.86,1219.55,991,1219.87,991.66Z" transform="translate(-508.35 -20.8)"/><path class="cls-2" d="M1287.59,954.64c.18.25,0,.56-.47.92s-1,.66-1.79,1.15-1.39.86-1.78,1.14-1,.75-1.69,1.38-1.31,1.09-1.7,1.37c-.58.42-2.47-.65-5.69-3.19s-5.3-3.51-6.26-2.88c-.79.51-2.8,1.93-6,4.26l-4.89,3.55c-3.4,2.46-5.33,3.89-5.77,4.27q-1.05.9,1.17,6.6t1.53,6.18l-7,5c-.41.3-.73.3-.94,0a7.22,7.22,0,0,1-.6-1.74l-7.8-26.71q-.9-3.25-4.9-19-.6-2.65-2.08-7.81c-.33-1-.35-1.58-.06-1.79a17.55,17.55,0,0,1,1.84-1.1,16.53,16.53,0,0,0,1.85-1.09,15.82,15.82,0,0,0,1.56-1.4,14.77,14.77,0,0,1,1.53-1.37c.18-.14.72.07,1.62.61q2,1.23,21.17,13.78Q1287.43,954.42,1287.59,954.64Zm-27.08-7q-.67-.92-8.75-6.22c-5.23-3.43-8.74-5.61-10.56-6.55q5.71,21.36,6.29,22.15c.52.72,1.61.57,3.27-.44.1,0,1.12-.76,3.06-2.16l3.18-2.31Q1261.43,948.87,1260.51,947.61Z" transform="translate(-508.35 -20.8)"/><path class="cls-2" d="M1292.94,877.35q3.06,3.3,9,10.17t9,10.2q2.89,3.13,8.72,9.33t8.72,9.32c.59.63.64,1.16.18,1.6-.28.25-.73.62-1.34,1.08a17.22,17.22,0,0,0-1.35,1.08c-.29.27-.73.73-1.29,1.35s-1,1.09-1.29,1.36-1,.37-2.09.17q-13.79-2.76-41.41-7.94c-2.83-.51-4.44-.77-4.82-.77q-.29.26.81,1.44,4.08,4.43,12.42,13.15T1300.61,942c.58.63.69,1.12.31,1.47s-.83.71-1.53,1.26-1.22,1-1.54,1.26-.81.8-1.42,1.47-1.09,1.17-1.42,1.48-.88.46-1.24.07q-2.91-3.15-8.5-9.79t-8.53-9.82q-3.21-3.48-11.82-12.29-2.24-2.29-6.82-6.8l-.37-.35c-.28-.27-.2-.63.25-1.08q1.8-1.71,2.76-2.76c.24-.26.66-.8,1.27-1.6a10.35,10.35,0,0,1,1.3-1.52c.17-.16.71-.15,1.64,0q14.83,3.12,44.7,8.74c.85.14,1.61.23,2.29.28a65.24,65.24,0,0,0-4.9-5.69q-3.45-3.74-10.62-10.95t-10.59-10.93c-.59-.63-.69-1.12-.32-1.47s.87-.75,1.61-1.32,1.27-1,1.61-1.33.86-.85,1.52-1.56,1.16-1.24,1.52-1.57A.74.74,0,0,1,1292.94,877.35Z" transform="translate(-508.35 -20.8)"/><path class="cls-2" d="M1347.36,854.36a30.4,30.4,0,0,1,10.51,17q2.34,10.71-4.4,18.62c-.86,1-2.19,2.5-4,4.45s-3.14,3.45-4,4.46-1.9,2.31-3.38,4.21-2.61,3.31-3.39,4.22a.85.85,0,0,1-1.36.1q-3.24-2.77-9.59-8.59t-9.61-8.61q-3.45-2.94-10.59-8.61T1297,873c-.42-.35-.41-.78,0-1.28.61-.72,1.53-1.78,2.76-3.19s2.16-2.47,2.77-3.19,1.41-1.68,2.54-3,2-2.41,2.6-3.11q8.58-10.1,16.7-11.72a23.88,23.88,0,0,1,12.21.91A31.17,31.17,0,0,1,1347.36,854.36Zm-6.06,7.12q-6.43-5.47-13.53-5.34-7.37.15-12.67,6.38-4.38,5.15-3.6,4.1c-1.81,2.38-2.35,3.87-1.61,4.5q2.29,1.95,6.77,5.94t6.78,6q2.26,1.92,6.88,5.67c3.07,2.5,5.37,4.4,6.87,5.68q1.14,1,4.28-2.38c-.28.3.92-1.13,3.59-4.27a21.26,21.26,0,0,0,3.82-5.93,13.4,13.4,0,0,0,.43-7.21A22.64,22.64,0,0,0,1341.3,861.48Z" transform="translate(-508.35 -20.8)"/><path class="cls-2" d="M1410.9,805.25c.51.31.57.79.17,1.45q-.33.56-1.14,1.65c-.53.73-.92,1.3-1.15,1.69s-.6,1.06-1,1.94-.79,1.52-1,1.94a.78.78,0,0,1-1.22.29q-3-1.83-8.93-5.65t-8.92-5.64c-.87-.53-1.53-.58-2-.16q-.87.81-7.11,11.15T1372,825.38c-.16.56.2,1.1,1.07,1.63q2.94,1.79,9,5.2t9,5.2c.73.44.94.94.61,1.48s-.66,1-1.23,1.8-1,1.39-1.23,1.81-.55,1-1,1.81-.72,1.41-1,1.81a.83.83,0,0,1-1.27.35q-3.68-2.24-10.85-7t-10.85-7q-3.87-2.34-11.86-6.71T1340.53,819q-.73-.43-.24-1.26c.23-.39.63-1,1.18-1.74s1-1.35,1.21-1.77.57-1,1-1.89.77-1.5,1-1.89.66-.63,1.06-.39q2.88,1.76,8.5,5.48t8.5,5.48a1.2,1.2,0,0,0,1.56,0q.8-.63,7.26-11.32,6.32-10.47,6.62-11.63c.16-.58-.16-1.12-1-1.62q-2.81-1.7-8.57-4.94t-8.58-4.94c-.44-.27-.51-.65-.21-1.16s.65-1,1.2-1.75.94-1.34,1.19-1.75.56-1,1-1.83.73-1.43,1-1.82c.34-.57.76-.7,1.25-.41q3.88,2.35,11.46,7.38t11.46,7.38c2.46,1.49,6.22,3.59,11.28,6.33S1408.44,803.76,1410.9,805.25Z" transform="translate(-508.35 -20.8)"/><path class="cls-2" d="M1425,759.31a8.08,8.08,0,0,1,1.5,1l1.45,1.15c.82.46,2,1.21,3.49,2.22a.92.92,0,0,1,.22,1.2,12.11,12.11,0,0,1-.76,1.25,108.14,108.14,0,0,0-6.8,12.88q-1.18,2.54-3.42,7.68t-3.42,7.68c-.36.76-.88,1-1.57.66q-4-1.86-11.71-6t-11.72-6q-4-1.89-15.24-6.63-2.87-1.26-8.65-3.58l-.51-.2c-.55-.23-.68-.65-.39-1.28q1.13-2.42,3.54-7.2t3.54-7.2c.73-1.54,1.76-3.88,3.11-7s2.38-5.46,3.1-7c.51-1.09,1.13-1.52,1.85-1.29a62.69,62.69,0,0,1,6.15,2,.77.77,0,0,1,.46,1.15q-1.38,2.94-4.51,8.75t-4.53,8.82c-.89,1.89-1.19,3.21-.9,4s1.46,1.58,3.51,2.55l5.28,2.46a17.12,17.12,0,0,0,2.56,1.08c.83.13,1.48-.3,1.94-1.29.13-.27.3-.67.52-1.19l.55-1.18q3.17-6.78,5.45-12.29.92-2.15,2-5.15c.18-.51.5-.65,1-.43a36.78,36.78,0,0,1,3.35,1.89c1.48.9,2.61,1.53,3.39,1.9.42.2.47.64.15,1.33-.13.28-.69,1.27-1.69,3q-1.11,1.83-4.29,8.62-2.67,5.7-3.24,7.29a1.75,1.75,0,0,0,.74,2.29c-.15-.1.76.31,2.74,1.24l5.24,2.46q3.69,1.71,5.13,1c.76-.34,1.69-1.67,2.77-4l1.74-3.83q1.14-2.42,5.51-14l.21-.54C1423.92,759.11,1424.32,759,1425,759.31Z" transform="translate(-508.35 -20.8)"/><path class="cls-2" d="M1449.13,715.14c.2.07.23.29.09.68s-.45,1.13-.85,2-.69,1.6-.86,2-.41,1.27-.69,2.29-.51,1.79-.69,2.29a1.44,1.44,0,0,1-1.37.93q-2.91.27-17.84,1a3.18,3.18,0,0,0-2.55,2c-.14.31-.54,1.39-1.2,3.26-1.18,3.32-1.83,5.3-2,6s.43,1,1.61,1.42c1.72.62,4.32,1.45,7.8,2.52s6.07,1.89,7.77,2.5c.51.18.69.51.51,1a21.06,21.06,0,0,1-.94,2.12c-.45.93-.77,1.65-1,2.15s-.33,1.05-.55,1.91-.42,1.51-.56,1.92a.82.82,0,0,1-1.17.59q-4.08-1.46-12.15-4.75t-12.15-4.75q-11.64-4.14-25.13-8l-.6-.17c-.5-.15-.56-.74-.2-1.77.74-2.07,1.78-5.17,3.13-9.33s2.4-7.25,3.12-9.29q2.85-8,8.47-11.42,6.21-3.79,14.12-1a22.4,22.4,0,0,1,8.08,4.5,17.72,17.72,0,0,1,4.3,7.85c.16.57.38.91.68,1s4.12-.15,11.33-.82S1448.74,715,1449.13,715.14Zm-36.92-2q-6.68-2.39-10.25.57-2.64,2.18-5.21,9.37c-1.38,3.89-1.76,6-1.15,6.28,1.27.64,4.78,2,10.56,4l7,2.5a1.59,1.59,0,0,0,.32-.42c.2-.41.51-1.1.94-2.05.93-2.24,1.87-4.68,2.8-7.32Q1420.79,716.16,1412.21,713.11Z" transform="translate(-508.35 -20.8)"/><path class="cls-2" d="M1453.19,697.49c.52.15.69.58.49,1.29-.12.44-.35,1.11-.68,2s-.55,1.55-.67,2-.29,1.16-.47,2.09-.32,1.61-.45,2a.82.82,0,0,1-1.12.68q-4.29-1.2-12.83-4t-12.87-4q-4.18-1.17-12.67-3.12t-12.67-3.11c-.63-.18-.86-.55-.71-1.11s.37-1.17.71-2.1.58-1.65.72-2.14.27-1.12.44-2,.32-1.58.44-2q.27-1,1-.75,4.22,1.18,12.58,3.82t12.57,3.83q4.34,1.2,13.08,3.3T1453.19,697.49Z" transform="translate(-508.35 -20.8)"/><path class="cls-2" d="M1417.65,643.33c.66.14.95.43.85.88q-.21,1-3.26,13.14,11.6,2.8,18.64,4.29,4.39.95,13.26,2.48t13.27,2.48c.53.12.72.53.57,1.26-.1.45-.28,1.12-.55,2s-.46,1.59-.56,2.07-.2,1.14-.32,2.08-.22,1.63-.32,2.08a.86.86,0,0,1-1.15.73q-4.36-.93-13-3.13T1432,670.58q-6.8-1.44-18.79-3.56-1.43,9.78-2.38,14.26c-.06.3-.22.42-.48.37a8.91,8.91,0,0,1-1.92-.76l-1.88-.91a30.53,30.53,0,0,1-3.6-1.31.65.65,0,0,1-.36-.74l.13-.44q3.6-13.05,4.5-17.28.79-3.74,2-12.34.86-5.88.64-4.9c.14-.65.45-1,.92-.94a26,26,0,0,0,3.7.86c.33.07.85.14,1.57.22A14.62,14.62,0,0,1,1417.65,643.33Z" transform="translate(-508.35 -20.8)"/><path class="cls-2" d="M1470.25,598.3q.46,0,.36,1c0,.48-.17,1.18-.35,2.1s-.3,1.61-.35,2.09-.1,1.21-.13,2.18-.07,1.69-.12,2.17c-.08.71-2.15,1.4-6.19,2.06s-6.16,1.56-6.34,2.7c-.16.93-.46,3.36-.9,7.31l-.67,6q-.69,6.27-.72,7.15,0,1.38,5.66,3.57t5.61,3l-1,8.54c-.05.51-.26.74-.63.7a6.77,6.77,0,0,1-1.68-.73l-25-12.2q-3-1.53-17.36-9.17c-1.57-.89-4-2.13-7.18-3.72-.94-.41-1.4-.8-1.36-1.15a17.39,17.39,0,0,1,.43-2.11,16.94,16.94,0,0,0,.43-2.1,15,15,0,0,0,0-2.09,14.79,14.79,0,0,1,0-2.06c0-.23.54-.49,1.55-.79q2.26-.66,24.43-6.38Q1470,598.28,1470.25,598.3Zm-23.43,15.3q-1.12-.14-10.49,2.29c-6,1.55-10,2.68-11.94,3.39Q1444,629.43,1445,629.54c.88.1,1.51-.81,1.88-2.71q.06-.15.45-3.72l.44-3.91C1448.17,615.58,1447.86,613.71,1446.82,613.6Z" transform="translate(-508.35 -20.8)"/><path class="cls-2" d="M1469.17,543.54c.57,0,.86.27.86,1a9.45,9.45,0,0,1-1.12,2.77,24.15,24.15,0,0,1-1.59,2.81,28.35,28.35,0,0,1,4.85,16.66,23.1,23.1,0,0,1-8.63,18.47q-8.14,6.87-19.84,6.84-12,0-20.09-6.8a23.07,23.07,0,0,1-8.57-18.62,24.23,24.23,0,0,1,2.86-11.32,22.84,22.84,0,0,1,7.78-8.68,2.36,2.36,0,0,1,1.14-.49q.54,0,3.61,2.74c2,1.82,3.06,2.88,3.06,3.16s-.8,1-2.39,2.32a25,25,0,0,0-4.43,4.65,12.75,12.75,0,0,0-2.4,7.26,14.19,14.19,0,0,0,6.16,11.85,22.75,22.75,0,0,0,26.51-.06q6.22-4.69,6.24-11.79a22.58,22.58,0,0,0-3.88-12.85c-.71.05-3.18.26-7.43.64-3,.3-5.49.45-7.4.44q-.66,0-.66-.84c0-.48,0-1.21.1-2.18s.1-1.69.1-2.17,0-1.23-.07-2.22-.07-1.73-.07-2.22.42-.8,1.25-.8,2.29,0,4.12.11,3.22.1,4.13.1q5.63,0,15.25-.69Z" transform="translate(-508.35 -20.8)"/><path class="cls-2" d="M1458.9,498.87a8.15,8.15,0,0,1,1.82.13l1.83.24c1,0,2.33,0,4.14.13a.91.91,0,0,1,.8.92,11.81,11.81,0,0,1,0,1.46,107.38,107.38,0,0,0,.73,14.56q.27,2.78,1,8.34c.48,3.72.8,6.5,1,8.35.09.84-.25,1.29-1,1.37-2.91.28-7.29.56-13.14.81s-10.24.53-13.14.82-8.46,1-16.5,2.08c-2.07.26-5.15.7-9.26,1.34l-.54.09q-.88.12-1-.9-.27-2.65-.63-8c-.25-3.56-.46-6.22-.63-8s-.47-4.23-.91-7.61-.74-5.9-.91-7.6c-.11-1.19.2-1.88.94-2a60.54,60.54,0,0,1,6.3-1.43c.6-.06.93.19,1,.75.21,2.15.41,5.43.6,9.82s.38,7.7.6,9.91.62,3.36,1.24,3.85,2.07.62,4.32.4l5.8-.57a17.41,17.41,0,0,0,2.75-.39c.79-.31,1.12-1,1-2.1,0-.3-.09-.73-.17-1.29s-.1-1-.13-1.29q-.73-7.46-1.59-13.35c-.2-1.54-.51-3.36-.93-5.44q-.15-.8.63-.87,1.25-.12,3.84-.09c1.73,0,3,0,3.88-.09.46-.05.74.31.81,1.07,0,.3,0,1.44.06,3.41,0,1.43.22,4.64.71,9.6.41,4.18.73,6.83.94,7.93a1.75,1.75,0,0,0,1.81,1.59c-.19,0,.81-.12,3-.33l5.76-.57c2.7-.27,4.34-.84,4.94-1.71.48-.69.6-2.3.35-4.84l-.45-4.18q-.27-2.65-2.41-14.84l-.09-.57C1457.9,499.23,1458.2,498.94,1458.9,498.87Z" transform="translate(-508.35 -20.8)"/><path class="cls-2" d="M843.66,879.92c28,19.52,57.74,12.23,58.32,10,2.43-9.57,7.48-14.52,11.15-18.86a17.47,17.47,0,0,1,13.91-6.5,18,18,0,0,1,11.57,4.39,21.71,21.71,0,0,1,7.3,11.31q4.46,15.94,14.28,15.94h.93v11.42h-.93A21.81,21.81,0,0,1,950,905.15a15.49,15.49,0,0,1-6.84-6.59,18.5,18.5,0,0,1-8.28,6.77,28.19,28.19,0,0,1-11.2,2.25c-6,0-10.37-.07-13-2.22-13-13.56-32.47,15.06-65.69-8.07m69.71-3.12a27,27,0,0,0,9.65,2,12.28,12.28,0,0,0,8.38-2.84,9.45,9.45,0,0,0,3.25-7.47,10.3,10.3,0,0,0-2.54-7.12,8.1,8.1,0,0,0-6.31-2.85q-4,0-7.35,5T914.61,894.17Z" transform="translate(-508.35 -20.8)"/><path class="cls-2" d="M991.92,907.58h-.25q-10.51,0-15.34-4.92-4.82,4.92-15.21,4.92h-.25V896.16h.75q9.39,0,9.4-11.95V843.69h10.76v40.52q0,11.94,9.34,11.95h.8Z" transform="translate(-508.35 -20.8)"/><path class="cls-2" d="M1062.11,907.58h-15q-9.53,0-20.41-8-10.89,8-20.35,8h-15V896.16h15.22a28,28,0,0,0,11.62-2.23Q1000,880.87,1000,873.13q0-6.51,8.26-10.46a42.24,42.24,0,0,1,18.46-3.95,43.61,43.61,0,0,1,18.74,3.81q8.1,3.81,8.1,10.37,0,3.86-5,9.43a77.75,77.75,0,0,1-13.48,11.43,31.27,31.27,0,0,0,11.81,2.4h15.21Zm-35.37-18.69q16.63-9.84,16.63-13.12,0-5.5-16.63-5.51-16.46,0-16.45,5.39Q1010.29,879.06,1026.74,888.89Z" transform="translate(-508.35 -20.8)"/><path class="cls-2" d="M1061.86,896.16h2.66a8.14,8.14,0,0,0,5.57-1.85q2.1-1.84,3.4-6.3,3.78-12.53,8.94-18a17.1,17.1,0,0,1,13-5.48,18.25,18.25,0,0,1,13.85,6.18,21.43,21.43,0,0,1,5.75,15.15q0,10.54-6.62,16.14T1092,907.58q-8.34,0-13.29-4.8-3.78,4.8-13.55,4.8h-3.28Zm21.28-3.34a16.54,16.54,0,0,0,9.52,3.34,12.28,12.28,0,0,0,8.38-2.84,9.45,9.45,0,0,0,3.25-7.47,10.23,10.23,0,0,0-2.57-7.12,8.12,8.12,0,0,0-6.27-2.85Q1087.65,875.88,1083.14,892.82Z" transform="translate(-508.35 -20.8)"/><path class="cls-2" d="M1125.76,888.89a18,18,0,0,1-13.8,0c-7.67-3-2,6.23-2,6.23s13.68,4,18.24,1S1125.76,888.89,1125.76,888.89Z" transform="translate(-508.35 -20.8)"/><path class="cls-2" d="M702.63,446.55q-4.95-1.59-11-6.84-4.36-8.1-4.22-24.32a102.94,102.94,0,0,1,4.77-30.64,19.74,19.74,0,0,1,9.91-12.08,19.24,19.24,0,0,1,15.29-1.16,33.77,33.77,0,0,1,5.53,3.19q5.54,3.6,6.76,6.16a3,3,0,0,1-.11,1c-.14.45-.5.58-1.08.4a30.28,30.28,0,0,1-3.1-1.64,25.72,25.72,0,0,0-4.64-2.13,14.18,14.18,0,0,0-4.07-.69q-4.28-.09-8.73,4.54a28.17,28.17,0,0,0-6.52,11.07q-2.7,8.48-3.71,23.1-1.51,22.39,3.44,24,1.86.6,5.74-.66t4.88-.94a22.33,22.33,0,0,1,3.75,2.56,37,37,0,0,1,3.68,3Q709.2,448.65,702.63,446.55Zm27.62-14.83a18.3,18.3,0,0,1-3.71-2.48q-3.45-2.65-3-3.95.29-.85,3.52-2.86c2.32-1.43,3.93-2,4.84-1.7q-.69-.23,7.25,5.71C735.22,430.6,732.27,432.37,730.25,431.72Zm2.38-13.38a31.86,31.86,0,0,1-3.34-2.15q-3.25-2.4-3.44-3.75-.15-1.05,6.56-5.34a22.58,22.58,0,0,1,4.62,2.84c2.64,1.84,3.83,3.14,3.58,3.92a1.77,1.77,0,0,1-.24.33q-2.49,2.25-5,4.41C734.93,418.87,734,418.79,732.63,418.34Zm13,9q-1.78-.58-7.56-6a.35.35,0,0,1,0-.29c.09-.28,1.31-1.2,3.68-2.74,2.64-1.73,4.14-2.49,4.48-2.29a34.35,34.35,0,0,1,6.15,4.88c.66.21.87.69.64,1.43A7.22,7.22,0,0,1,751,425Q747.8,428.07,745.63,427.38Z" transform="translate(-508.35 -20.8)"/><path class="cls-2" d="M686,466.4a14.45,14.45,0,0,1-7.16-2.27q-1.44-.93-1.35-1.56.21-1.47,10.69-1.26,12.93.44,25.87.93,7.91.28,19.65.35c5.72.05,9.06.14,10,.28a20.79,20.79,0,0,1,9.31,3.29c.79.59,1.17,1,1.13,1.27-.08.59-2.55.87-7.4.82q-1.32,0-26.78-.54Q698,467.22,686,466.4Z" transform="translate(-508.35 -20.8)"/><path class="cls-2" d="M677,536a15.15,15.15,0,0,1,1.59-7.46,11.25,11.25,0,0,0,1.63-5.27q-.18-9.48-10-18.56-9.12-7.17-18.18-14.27-9.72-8-9.68-14.7.1-7.74,14-7.91,5-.06,12.77,2.8a60.63,60.63,0,0,1,12.43,6c.57.38.85.76.86,1.15,0,.9-.66,1.36-2,1.38a1.39,1.39,0,0,1-.65-.13c-3.1-1.63-5.52-2.81-7.26-3.51a35.19,35.19,0,0,0-11.41-3.08,8.69,8.69,0,0,0-5.45,1.42,4.51,4.51,0,0,0-2.22,4.41,14.88,14.88,0,0,0,5.33,9.73q5.5,4,11.08,7.91a75,75,0,0,1,14.67,13.74q6.27,7.71,6.36,15.32a14.72,14.72,0,0,1-1.51,5.91,14.27,14.27,0,0,0-1.53,5Zm45.42-21.83c-.69.22-2.1,0-4.23-.79s-3.43-1.54-3.48-2.27a14.87,14.87,0,0,1,2-4.35c1.4-2.29,2.47-3.51,3.2-3.64q.78-.35,8.17,3.7Q726.87,510.16,722.44,514.21Zm5,12.63a14.21,14.21,0,0,1-4-1.11c-2.57-.91-4-1.93-4.14-3,.12-1,.92-2.4,2.42-4.09a13.3,13.3,0,0,1,3.47-3.07,33.93,33.93,0,0,1,4.71,1.94c2.13,1,3.29,1.8,3.47,2.27,0,.43-.7,1.62-2.1,3.57C729.67,525.48,728.4,526.65,727.41,526.84Z" transform="translate(-508.35 -20.8)"/><path class="cls-2" d="M693,544.51q-12,.72-14-8.55l10.69-1.52a8.88,8.88,0,0,0,1.87,4.39c1,1.26,2,1.82,3.12,1.67q14.43-5.25,41.34-14a12.55,12.55,0,0,0,4.67-3.14s2.29,0,6.72.15q5.67.1,5.83,1.32c.05.3-.14.67-.56,1.12a4.54,4.54,0,0,1-2,1.1,5.12,5.12,0,0,0-2,1.07,8.48,8.48,0,0,0-1.58,2.73,7.36,7.36,0,0,1-.93,1.82,17.09,17.09,0,0,1-3.18.2,42.6,42.6,0,0,1-7.21-1.26q-9.29,3.48-18.5,7a103.45,103.45,0,0,1-20.09,5.53C695.68,544.31,694.3,544.45,693,544.51Z" transform="translate(-508.35 -20.8)"/><path class="cls-2" d="M693.14,570a14.55,14.55,0,0,1-7.51.31c-1.11-.26-1.71-.59-1.8-1q-.3-1.46,9.62-4.83,12.31-4,24.63-8,7.53-2.41,18.6-6.36,8.1-2.87,9.5-3.16a20.92,20.92,0,0,1,9.87-.07c1,.28,1.45.55,1.5.8q.18.88-6.68,3.3-1.25.45-25.36,8.62Q704.72,566.7,693.14,570Z" transform="translate(-508.35 -20.8)"/><path class="cls-2" d="M713.78,609.85q-7.77,2.6-22,2.85-12.15-2.55-18.07-5.74-8.09-4.31-10.68-12.13-1.07-3.18-3.48-19.49c-.1-.86.13-1.4.71-1.59a1.55,1.55,0,0,1,2.17,1.18q2.61,7.83,4.16,10.23A51.73,51.73,0,0,0,682.32,601a42.74,42.74,0,0,0,20.48,7q2.18.16,5.47-2.91a32.73,32.73,0,0,1-5.81-.37,5.44,5.44,0,0,1-4.26-3.74,8.83,8.83,0,0,1,1.23-8,8.71,8.71,0,0,1,5.44-4,32.24,32.24,0,0,1,11.81-.33q6.32,1.08,9.59,4.34,1.31,3.92-3.07,9.71Q718.9,608.15,713.78,609.85Zm-1.88-10.37q2-1.56,1-4.73a9.4,9.4,0,0,0-2.65-.35c-1.13.47-1.35,1.7-.69,3.7C709.71,598.67,710.5,599.13,711.9,599.48Z" transform="translate(-508.35 -20.8)"/><path class="cls-2" d="M729.09,670.45q-4.33-7.41-2.5-13.78,1.53-5.22,8.62-13.19a51.68,51.68,0,0,1-7.54-1.18q-4.14-1.53-7.6-7-3.84-6.18.3-8.61,7.7-4.5,17.89-.32a103.89,103.89,0,0,1,9.63,5.63,19.19,19.19,0,0,0,4.3-2.18,23,23,0,0,1,4.32-2.27c1.93-.64,3.06-.7,3.36-.18s-.48,1.41-2.23,2.88q-11.17,9.22-15.35,14.82-8,10.65-3.89,20Zm9.52-30.3,6.13-5.61a13.68,13.68,0,0,1-6.27-.8l-7.46-3a23,23,0,0,0,3.29,5.61A26.3,26.3,0,0,0,738.61,640.15ZM766,612.89c-.45.51-1.81,1-4.07,1.41-2.42.42-3.83.33-4.23-.28a14.68,14.68,0,0,1-.33-4.67c.09-2.68.4-4.29,1-4.81.59-.89,3.6-1.19,9-.89A23.08,23.08,0,0,1,766,612.89Zm10.48,8.5a14.53,14.53,0,0,1-4,1.09c-2.6.43-4.25.2-4.92-.7q-.74-1.37-.07-4.74a15,15,0,0,1,1.43-4.5A31.82,31.82,0,0,1,774,612c2.4-.11,3.8,0,4.21.37q.33.55-.06,4.14Q777.66,620.42,776.51,621.39Z" transform="translate(-508.35 -20.8)"/><path class="cls-2" d="M766.59,677.54a35.56,35.56,0,0,1-5.11,3.26c-2.75,1-4.47,1.66-5.18,1.86a12.68,12.68,0,0,1-4.81.63,38.71,38.71,0,0,1-12.92-5.54q-6.57-4.1-9.11-7.5l8.63-6.47A35.78,35.78,0,0,0,750,674.4a20.57,20.57,0,0,0,10.05,2.69,9.24,9.24,0,0,0,1-.65,14,14,0,0,0,5.51-9.12q-4.73,3.78-8.11,3.59-2-.1-4.72-2.83c-.29-.32-.55-.63-.79-.94q-4-5.31,5.08-12.09a21.45,21.45,0,0,1,9-3.42q6.86-1.36,9.38,1.58,3,3.52.59,10.75A29,29,0,0,1,766.59,677.54Zm.31-13.68a12.74,12.74,0,0,0,0-4.44,10.53,10.53,0,0,0-3.32-1c-1.39-.23-2.31-.17-2.76.17s-.29,1,.49,2C763.17,663.11,765,664.18,766.9,663.86Zm23.42-26.08c-4,1.42-6.46,2-7.47,1.73a.88.88,0,0,1-.41-.33,14.61,14.61,0,0,1-2.13-5c-.69-2.59-.61-4.21.26-4.86a1.51,1.51,0,0,1,.92-.29,29.91,29.91,0,0,0,5.21-1.17c2-.55,3.31-.46,3.85.26a2,2,0,0,1,.34.88c.32,1.73.67,3.46,1,5.18.17,1.59-.13,2.67-.89,3.24A2.52,2.52,0,0,1,790.32,637.78Z" transform="translate(-508.35 -20.8)"/><path class="cls-2" d="M770.26,718.79q-7.08-7.57-3.74-16.59,2.19-5.75,12.56-18.41a236.53,236.53,0,0,1,21.68-23.21q8.88-8.3,14.29-11.65,9.29-5.76,14.37-2.13c-.6,1.08-2.63,3.25-6.12,6.5a13.57,13.57,0,0,0-5.49-.08q-4.9,1.32-11.38,7.53-16.14,15.5-24.8,26.3-5.88,7.34-6.59,14a12.75,12.75,0,0,0,3.11,10.4Z" transform="translate(-508.35 -20.8)"/><path class="cls-2" d="M797,741.76q-3-2.82-6.92-6.78-5.39-7-5.71-11.56-9-.54-14.15-4.57l7-8.2a24.7,24.7,0,0,0,8.76,3.14,14.76,14.76,0,0,1,1.91-2.73,25.58,25.58,0,0,1,16-9.12q5.71-.84,9.44,2.34,1.67,1.43.41,4.88a20.27,20.27,0,0,1-3.57,5.76A22.18,22.18,0,0,1,795.36,723q1.56,4.51,8.66,10.58Zm4.13-24.35a11.42,11.42,0,0,0,3.16-5.08c.12-.8.23-1.63.33-2.46q-5.19-1.87-10.6,1.28c-.67.92-.8,3.08-.4,6.51A44,44,0,0,0,801.14,717.41Zm25.29-45.6a1.7,1.7,0,0,1-.25.39,12.07,12.07,0,0,1-3.66,2.59c-1.83,1-3,1.29-3.52.84s-1.08-1.84-1.86-4.37-1-4.1-.78-4.73q.66-1.57,8.3-3.76A20.54,20.54,0,0,1,826.43,671.81Zm12.77,4.6a13.71,13.71,0,0,1-3.5,2.31q-3.54,1.93-4.93,1c-.72-.68-1.23-2.14-1.51-4.38a13,13,0,0,1-.07-4.68,26.7,26.7,0,0,1,4.65-2.31c2.13-.88,3.44-1.23,3.91-1.05s.81,1.63,1.35,4C839.68,673.83,839.72,675.54,839.2,676.41Z" transform="translate(-508.35 -20.8)"/><path class="cls-2" d="M818.51,756.41c-1.24-.86-2.59-2.76-4.07-5.72s-2.75-4.79-3.81-5.53q-1.32-.92-6-1.19a14.56,14.56,0,0,1-7.53-2.26l6.22-9a29.65,29.65,0,0,0,7.48,2.34,23.37,23.37,0,0,1,4.64.77,3.81,3.81,0,0,1,1,.52q1.59,1.1,4.1,5.57t4.14,5.6Zm14-49.35c-1.07,1-2.06,1.87-3,2.6-2.09,1.66-3.6,2.4-4.53,2.24s-1.82-2.8-3.08-8a22.52,22.52,0,0,1,3.86-3.41q3.85-2.94,4.86-2.25.17.21.24.33,1.36,3,2.78,6C833.7,705,833.32,705.82,832.46,707.06Zm12.44-9.79q-1.26,1.82-7.89,5.6a.36.36,0,0,1-.28,0c-.21-.15-.71-1.58-1.5-4.28-.86-3.13-1.15-4.82-.89-5a47.26,47.26,0,0,1,6.36-4.29,1.71,1.71,0,0,1,1.92-.17,6.85,6.85,0,0,1,1.57,2.59C845.56,694.11,845.79,696,844.9,697.27Zm.65,14.77a18.38,18.38,0,0,1-3.47,3c-2.3,1.73-3.82,2.33-4.56,1.82q-.75-.51-1.77-4.23-1.15-4-.35-5.15,1.64-1,7.14-4.86c.16-.15.38-.13.66.07.81.56,1.58,2,2.29,4.27Q846.56,710.61,845.55,712Z" transform="translate(-508.35 -20.8)"/><path class="cls-2" d="M838.62,768a13.89,13.89,0,0,1-4.79-7.66q-1.05-5,1-13.55a19.54,19.54,0,0,1-8,7.86q-5.64,3.23-8.26,1.71L824,747q5.13,3,8-1.91a97.91,97.91,0,0,0,4.69-10.65q4.53-11.13,6.81-16.34,2.7-6.33,5.43-12.56,2.26-5.07,5.91-11.59a25.28,25.28,0,0,1,4.59-6c1.72-1.61,2.87-2.25,3.42-1.92s.19,1.56-1,3.77q-3.56,6.51-10.49,24a189.81,189.81,0,0,0-9,29.11q-2.74,12.16,1.74,15.74Z" transform="translate(-508.35 -20.8)"/><path class="cls-2" d="M853.75,761.31q-6.29,10.22-15,6.56l4.9-9.62a8.88,8.88,0,0,0,4.66,1c1.62-.1,2.67-.63,3.16-1.6q4-14.8,12.28-41.88a12.52,12.52,0,0,0,.11-5.63s1.35-1.84,4-5.42q3.33-4.56,4.43-4c.26.13.46.5.59,1.1a4.44,4.44,0,0,1-.24,2.25,5.21,5.21,0,0,0-.3,2.29,8.64,8.64,0,0,0,1.33,2.86,7.67,7.67,0,0,1,1,1.81,17.39,17.39,0,0,1-1.67,2.72,42.47,42.47,0,0,1-5.16,5.17q-2.5,9.6-4.91,19.17a103.23,103.23,0,0,1-7,19.62C855.16,759,854.48,760.17,853.75,761.31Z" transform="translate(-508.35 -20.8)"/><path class="cls-2" d="M943,762.59q-1.8,6.18-4,8c-.75.59-1.32.83-1.69.73s-.69-.61-1-1.51c-.54-1.82-2.14-3.12-4.77-3.88q-2.47-.72-11.76,4.43-9.93,5.5-11.17,9.82a3,3,0,0,0,.32,2.6L922.61,789c1.44,1.18,2.9,2.35,4.35,3.49a6.32,6.32,0,0,1,1.28,6.47q-.75,2.55-6.56,9.87-7.36,6.18-22.09,8.61-13.76,2.3-22.29-.18-9.16-2.67-13.07-13a29.14,29.14,0,0,1-.87-18.93q1-3.49,6.92-12.27,6-9,8-9.19c.45,0,.65.21.61.65a4,4,0,0,1-.56,1.36,5.18,5.18,0,0,1-1,1.24q-4.06,3.55-7.09,14a19.91,19.91,0,0,0,2.38,16.53q4.46,7.3,11.6,9,8.26,2,22.41-.46,13.64-2.4,14.5-5.33a.56.56,0,0,0,0-.41q.4-1.38-4-3.27l-7.35-3.08q-3.86-2.21-5-3a7.31,7.31,0,0,1-3.13-5.17,25.24,25.24,0,0,1,.59-2.47q3.28-11.3,16.41-21.16,12.45-9.37,20.91-8.48Q944.3,758,943,762.59Zm-62.1,73.54q0,1.1-2.06,4t-3.16,2.67a15.86,15.86,0,0,1-3.44-3.16q-2.75-3-2.69-4.17c0-.42.88-1.64,2.81-3.65a26.74,26.74,0,0,1,3.21-3.2A25.36,25.36,0,0,1,880.86,836.13Zm13.64-1a13.94,13.94,0,0,1-2.34,3.65c-1.63,2.1-3,3.05-4.12,2.87q-1.37-.6-3.12-3.35a12.54,12.54,0,0,1-2-4.37,27.84,27.84,0,0,1,3.27-3.89c1.61-1.68,2.69-2.57,3.26-2.67.41.12,1.34,1.15,2.79,3.11Q894.58,833.68,894.5,835.15Z" transform="translate(-508.35 -20.8)"/><path class="cls-2" d="M974.54,791.69a17.34,17.34,0,0,1-3.88,9.26q-1.93,2.41-10.86,4.17-8.07,1.57-12.17,1.16c-3-.31-4.88-2.06-5.81-5.24a14.85,14.85,0,0,1,.33-8.14c.52-1.29,1.25-1.89,2.2-1.8a1.61,1.61,0,0,1,.62.2c.73,1.77,2.69,2.83,5.89,3.16a45.31,45.31,0,0,0,11.1-.81q8-1.26,8.16-3.08.24-2.33-4.33-10.12-5.07-8.62-9.17-9.05a3.51,3.51,0,0,0-2.46.66.85.85,0,0,1-.47.15c-.56-.06-.93-.84-1.12-2.34a11.83,11.83,0,0,1,.09-4q1.64-7.6,7.59-7,3.27.35,8.77,9.73Q975.62,780,974.54,791.69Z" transform="translate(-508.35 -20.8)"/><path class="cls-2" d="M1014.81,802.94l-2.9.1q-.39,5.1-6.19,14Q998.58,828,990,831.17a116.6,116.6,0,0,1-16.4-2.46c-5.85-1.26-8.79-2.23-8.81-2.93,0-.25.56-.41,1.72-.45l10.76-.26a31.32,31.32,0,0,0,9-1.51q5.16-1.74,12.74-8.76t9.21-11.62c-2.44.26-4.07.41-4.88.44q-12,.43-12.38-10.34-.13-3.64,2.75-9.53,3.24-6.69,6.88-7.48,2-.39,5.91,4.6a33.66,33.66,0,0,1,5.77,11.36l2.12-.07Zm-11.48-10.64a6.76,6.76,0,0,0-1.16-3.4c-.87-1.4-1.86-2-3-1.78q-2.57.23-2.76,3.68a8.6,8.6,0,0,0,4.19,1.73C1002,792.74,1002.91,792.67,1003.33,792.3Z" transform="translate(-508.35 -20.8)"/><path class="cls-2" d="M1053.24,796.53q-7,1.15-11.51-.56a64.07,64.07,0,0,1-8.68-5.16q-6.45,6.45-8,7.69a22.14,22.14,0,0,1-10.18,4.43l-1.74-10.64q10.29-1.69,15-5.68-4.62-3.47-6.52-3.15a20.82,20.82,0,0,0-5.19,2.23c.42-5.21,1.07-8.91,2-11.13q2.68-4.32,10.07-5.52a26.16,26.16,0,0,1,8.89.45q7.28,1.38,7.89,5.17a7.45,7.45,0,0,1-1.13,5.05c-1.06,1.54-2.11,3-3.18,4.54a20.52,20.52,0,0,0,10.63,1.89Z" transform="translate(-508.35 -20.8)"/><path class="cls-2" d="M1067.9,792.4l-14.73,3.75-2.66-10.46,14.73-3.75Z" transform="translate(-508.35 -20.8)"/><path class="cls-2" d="M1067.9,792.4l-14.73,3.75-2.66-10.46,14.73-3.75Z" transform="translate(-508.35 -20.8)"/><path class="cls-2" d="M1135.89,766.57a30,30,0,0,1-5.33.94,7.4,7.4,0,0,1-4.26-1.2q-3.13-2.37-6.21-4.75a60.05,60.05,0,0,1-.59,7.69q-1.18,3.74-6.13,5.76-4,1.68-9.58-.41a27.52,27.52,0,0,1-4.34,5.87,21.93,21.93,0,0,1-6,3.33q-12.23,5-13.45-.5-2.12,6.21-11.36,11l-4.11-10a29.71,29.71,0,0,0,10.73-8.29,18.63,18.63,0,0,0,2.78-4.59,7.09,7.09,0,0,1,2.21-3.09.81.81,0,0,1,1.36.42c.44,1.08.46,2.86,0,5.33.43.58,1.5.75,3.22.54a16.39,16.39,0,0,0,4.92-1.43,74.4,74.4,0,0,0,7.84-4.15,7.81,7.81,0,0,0,3.28-6.07,10.52,10.52,0,0,1,1.94-4.24,4.64,4.64,0,0,1,1.1-.73c.51-.21.86-.1,1,.34a10,10,0,0,1,.22,2.72,5.81,5.81,0,0,0,.52,2.95,8,8,0,0,0,5-.43q4.75-2,4.94-5.77.25-6.29,1.5-8.7a1.7,1.7,0,0,1,.56-.66c.32-.13.6.11.85.71a23.54,23.54,0,0,1,1.07,6,14.64,14.64,0,0,0,12.16,1.45Z" transform="translate(-508.35 -20.8)"/><path class="cls-2" d="M1137.71,748.49q5.14,10.83-2.69,16.2l-5.4-9.34A9,9,0,0,0,1133,752c.79-1.41.92-2.59.38-3.52q-10.26-11.41-28.46-33.1a12.61,12.61,0,0,0-4.66-3.16s-.81-2.13-2.37-6.29q-2-5.28-1-5.9a1.57,1.57,0,0,1,1.25.1,4.47,4.47,0,0,1,1.75,1.43,5.4,5.4,0,0,0,1.76,1.5,9,9,0,0,0,3.13.44,7.19,7.19,0,0,1,2,.18,15.84,15.84,0,0,1,1.37,2.88,41.12,41.12,0,0,1,1.54,7.15q6.69,7.32,13.4,14.54a103.23,103.23,0,0,1,12.64,16.57C1136.51,746,1137.15,747.26,1137.71,748.49Z" transform="translate(-508.35 -20.8)"/><path class="cls-2" d="M1161.36,738.79a14.36,14.36,0,0,1,3.07,6.85c.19,1.13.1,1.82-.26,2.05q-1.23.82-8.06-7.13-8.29-9.94-16.54-19.91-5-6.09-12.82-14.9-5.67-6.45-6.47-7.64a21,21,0,0,1-3.74-9.14c-.09-1,0-1.55.19-1.69q.75-.49,5.55,5,.88,1,17.44,20.33Q1154,729.27,1161.36,738.79Z" transform="translate(-508.35 -20.8)"/><path class="cls-2" d="M1183,660.81c1.91,3.43,2.9,5.81,3,7.12a1.41,1.41,0,0,1-.27.36,15.25,15.25,0,0,1-4.67,2.92c-2.49,1.11-4.13,1.28-4.94.49a1.55,1.55,0,0,1-.42-.87,30.84,30.84,0,0,0-1.91-4.93c-.85-1.91-1-3.18-.38-3.79a1.79,1.79,0,0,1,.82-.47q2.5-.89,5-1.81c1.55-.47,2.66-.37,3.35.29A3.86,3.86,0,0,1,1183,660.81Zm43.06,17.39-7.79,5.85q-8.7,8.81-8.84,26.42,1.14,15,2.33,30,1.17,16.18-4.29,21.49-6.32,6.16-17.7-5-4.12-4-8.29-12.62a64.79,64.79,0,0,1-5.44-14.88c-.23-1-.15-1.71.24-2.11s.89-.39,1.42.13a1.63,1.63,0,0,1,.42.68,51,51,0,0,0,11,19.15,14,14,0,0,0,5.69,3.85q3.59,1.17,5.71-1,3.24-3.32,2.74-12.56-.86-10.2-1.78-20.4a94.45,94.45,0,0,1,2-26,42,42,0,0,1,3.81-8.72c2.25-4.11,9.28-10.08,11.08-11.92Z" transform="translate(-508.35 -20.8)"/><path class="cls-2" d="M1267.12,522.31q7.26,5.67,6.88,9.75-.07.74-2.86,13-16.62,72.79-32.87,113.49l-12.22,19.7-7.71-7.55c4.34-10.85,13.42-25.53,17.05-35.78q6.79-19.29,12.92-41.81,11.28-41.91,11.36-42.3,1.86-7.44,5.71-20.41-3.68-1.32-9.11,5.11a30.18,30.18,0,0,0-4.79,6.9q1.13-2.82-9.3,32.84t-18.84,56.73a144.9,144.9,0,0,1-9.34,19.86q-5.25,8.79-9.79,7-2.1-.84-7.19-8.7a98.7,98.7,0,0,1-8.21-15.28q-6.39-15.39-5.48-43.41a5.34,5.34,0,0,1,.26-1.7c.19-.47.49-.63.89-.47a10.55,10.55,0,0,1,2.45,2.43q1.38,2,3.64,4.93,0,6.72,1.24,21.93,3.11,21.15,8.56,31.31,7.11-5,14.33-23.07,1.65-4.12,8.46-23.47,5-14.1,18.52-61.08,1-3.41,2-6a74.33,74.33,0,0,1,5.35-9.17q8.51-9,15.5-6.23A10.14,10.14,0,0,1,1267.12,522.31Z" transform="translate(-508.35 -20.8)"/><path class="cls-2" d="M1283.58,461.51l-.11,4q-.39,12.36,11.48,25.38,11,10.22,22.15,20.44Q1329,522.42,1328.57,530q-.43,8.81-16.35,8.39-5.79-.15-14.67-3.61a65.3,65.3,0,0,1-14.11-7.21c-.85-.58-1.27-1.15-1.25-1.71s.39-.89,1.13-.87a1.71,1.71,0,0,1,.77.21,50.92,50.92,0,0,0,21.09,6.56,14,14,0,0,0,6.79-1q3.42-1.58,3.5-4.61.12-4.64-6.53-11.07-7.56-6.9-15.17-13.74a94.25,94.25,0,0,1-16.24-20.42,54.07,54.07,0,0,1-4.74-19.65Z" transform="translate(-508.35 -20.8)"/><path class="cls-2" d="M1266.85,429.09a18,18,0,0,1,6-.19c2,.2,3,.66,3.08,1.39a7.45,7.45,0,0,1-.36,2.06q-1.14,4.06-3.53,11.82a75.61,75.61,0,0,1,5.49,7.82q4.23,6.69,4.61,9.5l-10.68,1.5a18.33,18.33,0,0,0-2.73-7.29,88,88,0,0,1-5.21-9.1q-15.87,5.22-49.74,15.5a17.84,17.84,0,0,1-7.16,2.83,34.68,34.68,0,0,1-4.11-.34,16.51,16.51,0,0,1-4.36-1.6c-.66-.34-1-.6-1-.77a17.6,17.6,0,0,1,3-1.2,7.42,7.42,0,0,0,4.57-3.9,2.71,2.71,0,0,1,2.33-1.69,11.41,11.41,0,0,1,4.48.61c1.36.37,2.73.76,4.1,1.18q7.46-2.55,29.58-9.49,12.29-3.68,15.17-6.48a8.94,8.94,0,0,0,1.9-3.78c.87-2.86,1.57-4.89,2.1-6.12A3.62,3.62,0,0,1,1266.85,429.09Z" transform="translate(-508.35 -20.8)"/><path class="cls-2" d="M1264.51,405.05a14.33,14.33,0,0,1,7.49-.57c1.12.21,1.73.52,1.84.94q.35,1.44-9.44,5.17-12.17,4.44-24.34,8.83-7.44,2.68-18.35,7-8,3.17-9.38,3.5a20.87,20.87,0,0,1-9.87.43c-1-.25-1.46-.5-1.52-.75-.14-.58,2-1.76,6.56-3.54q1.21-.49,25-9.53Q1253.05,408.79,1264.51,405.05Z" transform="translate(-508.35 -20.8)"/></svg>