<svg xmlns="http://www.w3.org/2000/svg" viewBox="0 0 1011.56 1069.76"><defs><style>.cls-1{fill:#ffda00;opacity:0.74;}.cls-2,.cls-3,.cls-4{fill:#067a00;}.cls-3{font-size:75px;}.cls-3,.cls-4{font-family:BerlinSansFB-Reg, Berlin Sans FB;}.cls-4{font-size:80.08px;}</style></defs><g id="Layer_16_copy" data-name="Layer 16 copy"><path class="cls-1" d="M1005,252.63" transform="translate(-478.07 -20.8)"/><path class="cls-1" d="M1043.22,237.34" transform="translate(-478.07 -20.8)"/><path class="cls-2" d="M962.51,511.47c4.28-36.34,12.27-258.9,3-261.75s-37,145.36-47.74,145.36,17.82-155.34,7.84-159.61C893,252.63,846.52,373,835.83,368.71s30.37-122.95,72-181c-44.22,7.63-118.86,100.47-130.26,94.77,33-113.33,123.13-140.37,116-148.92s-124.6,31.33-114,20.66c74.22-74.77,146.07-64.84,154.62-73.39s-28.5-50.59-21.37-59.14S966.69,68,976.2,70.15s13.54-47.58,23.52-48.45,0,45.6,11.4,47.74,46.31-31.35,55.58-27.79-6,35.84-12.12,48.45c15.41,2.61,101.51,7.34,140.53,77.25-5.3,8.15-84.66-42.27-114.44-35.35,83,55.64,111.32,145.27,108.44,175.31-42.87-53.38-37.58-89.17-112.56-111.6,24.87,46.7,61.6,152.52,46.73,183-30-14.9-16.77-111.63-80.06-141.35,11.67,74,16.06,159.74,1.1,164.72s-9.93-134.91-39.3-149.43c-10.3-5.1-6.88,251-6.88,251" transform="translate(-478.07 -20.8)"/><path class="cls-2" d="M1174.14,457.45c-71.42-74.83-222.21,97.5-261.89,121.31,0,15.87-2.26,21.54,27.21,21.54C986.32,569.69,1072.11,445,1174.14,457.45Z" transform="translate(-478.07 -20.8)"/><ellipse class="cls-2" cx="915.87" cy="592.8" rx="14.26" ry="55.85" transform="translate(-628.99 800.45) rotate(-45)"/><rect class="cls-2" x="870.36" y="575.16" width="27.9" height="82.33" rx="11.33" transform="translate(332.06 -479.81) rotate(51.18)"/><path class="cls-2" d="M784.66,446.68c76.91-69.17,226.15,113.12,263.91,139.88-1.21,15.83.62,21.65-28.77,19.41C975.4,571.88,887.35,442,784.66,446.68Z" transform="translate(-478.07 -20.8)"/><ellipse class="cls-2" cx="1043.89" cy="600.28" rx="55.85" ry="14.26" transform="translate(-617.28 803.83) rotate(-40.64)"/><rect class="cls-2" x="1059.62" y="584.97" width="27.9" height="82.33" rx="11.33" transform="translate(1786.74 251.02) rotate(133.18)"/><rect class="cls-2" x="477" y="461.11" width="51.83" height="42.62"/><path class="cls-2" d="M609.86,457.45S651.3,434.79,651,405.87s-31,32.5-37.26,32.2.59-25.34-17.59-50.38C572,413.92,609.86,457.45,609.86,457.45Z" transform="translate(-478.07 -20.8)"/><path class="cls-2" d="M601.34,535.44c5.25-3.05,37.2-22.94,32.82-52a1.07,1.07,0,0,0-1.15-.92c-8,1-22.83,23.64-27.06,30.34a1.08,1.08,0,0,1-1.93-.18c-2.62-6.8-11.79-29.3-24.66-46.95a1.09,1.09,0,0,0-1.73,0c-20.51,24.84,17.2,64.37,22.4,69.6A1.08,1.08,0,0,0,601.34,535.44Z" transform="translate(-478.07 -20.8)"/><path class="cls-2" d="M609,597.4s36.54-26.46,23-74.52c-16.38,12.71-25.74,43.2-25.74,43.2s-21.6-38.37-34-45a.7.7,0,0,0-1,.39C557.94,563.43,609,597.4,609,597.4Z" transform="translate(-478.07 -20.8)"/><path class="cls-2" d="M638.32,585.52" transform="translate(-478.07 -20.8)"/><path class="cls-2" d="M632.71,667.35c2-3.35,22.3-39.76,5.76-81.46a.3.3,0,0,0-.46-.12c-21.5,17.71-6.21,51.58-14.09,49.79S610.29,608.8,579,583a.29.29,0,0,0-.48.21c-2,47.83,49.83,81.71,53.79,84.23A.27.27,0,0,0,632.71,667.35Z" transform="translate(-478.07 -20.8)"/><path class="cls-2" d="M658.12,736.24s25.2-37.44,0-79.2c-17,13.92-9.16,50.16-13.22,50.4s-13.81-26.39-47.27-43a.33.33,0,0,0-.47.29C597.2,711.7,658.12,736.24,658.12,736.24Z" transform="translate(-478.07 -20.8)"/><path class="cls-2" d="M695.08,789c3.14-.63,18.48-39.88-9.84-79.44-4.56,4.08-13.44,31.68-7.48,49.12-5,3.62-11.91-16.57-50.18-32.15a.27.27,0,0,0-.37.27C632.11,770.93,690.3,790,695.08,789Z" transform="translate(-478.07 -20.8)"/><path class="cls-2" d="M743.05,838.23c4.21-6.73,9.61-40.5-25.45-74.07-12.47,30.14,12.53,49.76,4.18,52.42s-7.25-12.87-55.84-24a.84.84,0,0,0-1,1C674.89,834.12,730.64,839,743.05,838.23Z" transform="translate(-478.07 -20.8)"/><path class="cls-2" d="M797.93,873.17c-3.95-13.41,1.89-35.17-41.41-69.25-2.72,45.12,18,39.36,16.56,51.12-22.08,3.84-6.72-15.12-63.36-12.72,10.9,32.22,79.32,36.14,88,31.39A.44.44,0,0,0,797.93,873.17Z" transform="translate(-478.07 -20.8)"/><path class="cls-2" d="M860.84,896c-3.94-13.35-5.33-35.73-53.78-61.93a.47.47,0,0,0-.68.38c-2.36,43.88,24.47,38.81,23.64,50a.49.49,0,0,1-.39.42c-21.43,3.6-4.48-11-62.16,1a.46.46,0,0,0-.23.78c37.81,36.88,84.75,14.51,93.39,9.79A.44.44,0,0,0,860.84,896Z" transform="translate(-478.07 -20.8)"/><path class="cls-2" d="M627.1,397.66c1.61-3.17,3.89-9.09,6.36-15.57,3.25-8.67,6.83-18.34,8.54-24.41,7.21-26,6.49-44,6.59-57.44-12,15.37-21.11,30-24.72,52.61a143.16,143.16,0,0,0-1.1,26.68" transform="translate(-478.07 -20.8)"/><path class="cls-2" d="M1367.09,456.45s-41.44-22.66-41.14-51.58,31,32.5,37.26,32.2-.59-25.34,17.59-50.38C1405,412.92,1367.09,456.45,1367.09,456.45Z" transform="translate(-478.07 -20.8)"/><path class="cls-2" d="M1375.61,534.44c-5.25-3.05-37.2-22.94-32.82-52a1.06,1.06,0,0,1,1.15-.92c8,1,22.83,23.64,27.06,30.34a1.08,1.08,0,0,0,1.92-.18c2.63-6.8,11.79-29.3,24.66-46.95a1.09,1.09,0,0,1,1.73,0c20.52,24.84-17.2,64.37-22.4,69.6A1.06,1.06,0,0,1,1375.61,534.44Z" transform="translate(-478.07 -20.8)"/><path class="cls-2" d="M1368,596.4s-36.54-26.46-23-74.52c16.38,12.71,25.74,43.2,25.74,43.2s21.6-38.37,34-45a.7.7,0,0,1,1,.39C1419,562.43,1368,596.4,1368,596.4Z" transform="translate(-478.07 -20.8)"/><path class="cls-2" d="M1338.63,584.52" transform="translate(-478.07 -20.8)"/><path class="cls-2" d="M1344.24,666.35c-2-3.35-22.3-39.76-5.76-81.46a.3.3,0,0,1,.46-.12c21.5,17.71,6.2,51.58,14.09,49.79s13.62-26.76,44.91-52.55a.29.29,0,0,1,.47.21c2,47.83-49.82,81.71-53.78,84.23A.27.27,0,0,1,1344.24,666.35Z" transform="translate(-478.07 -20.8)"/><path class="cls-2" d="M1318.83,735.24s-25.2-37.44,0-79.2c17,13.92,9.15,50.16,13.22,50.4s13.81-26.39,47.27-43a.33.33,0,0,1,.47.29C1379.75,710.7,1318.83,735.24,1318.83,735.24Z" transform="translate(-478.07 -20.8)"/><path class="cls-2" d="M1281.87,788c-3.14-.63-18.48-39.88,9.84-79.44,4.56,4.08,13.44,31.68,7.48,49.12,5,3.62,11.91-16.57,50.18-32.15a.27.27,0,0,1,.37.27C1344.84,769.93,1286.65,789,1281.87,788Z" transform="translate(-478.07 -20.8)"/><path class="cls-2" d="M1233.9,837.23c-4.22-6.73-9.61-40.5,25.45-74.07,12.46,30.14-12.53,49.76-4.18,52.42s7.25-12.87,55.84-24a.84.84,0,0,1,1,1C1302.06,833.12,1246.3,838,1233.9,837.23Z" transform="translate(-478.07 -20.8)"/><path class="cls-2" d="M1179,872.17c4-13.41-1.89-35.17,41.42-69.25,2.72,45.12-18,39.36-16.56,51.12,22.08,3.84,6.72-15.12,63.36-12.72-10.9,32.22-79.32,36.14-88,31.39A.46.46,0,0,1,1179,872.17Z" transform="translate(-478.07 -20.8)"/><path class="cls-2" d="M1116.1,895c3.94-13.35,5.33-35.73,53.79-61.93a.47.47,0,0,1,.68.38c2.35,43.88-24.47,38.81-23.64,50a.49.49,0,0,0,.39.42c21.43,3.6,4.48-11,62.16,1a.46.46,0,0,1,.23.78c-37.82,36.88-84.75,14.51-93.39,9.79A.44.44,0,0,1,1116.1,895Z" transform="translate(-478.07 -20.8)"/><path class="cls-2" d="M1349.85,396.66c-1.62-3.17-3.89-9.09-6.36-15.57-3.26-8.67-6.83-18.34-8.54-24.41-7.21-26-6.49-44-6.59-57.44,12,15.37,21.11,30,24.72,52.61a143.16,143.16,0,0,1,1.1,26.68" transform="translate(-478.07 -20.8)"/><path class="cls-2" d="M556.8,477.26H515.11s47.46-239.92,225.53-309.63C562.57,307.56,556.8,477.26,556.8,477.26Z" transform="translate(-478.07 -20.8)"/><path class="cls-2" d="M1415,477.26h41.68s-47.46-239.92-225.53-309.63C1409.18,307.56,1415,477.26,1415,477.26Z" transform="translate(-478.07 -20.8)"/><text class="cls-3" transform="translate(374.04 951.45)">Maalam</text><text class="cls-4" transform="matrix(-0.1, 0.97, -0.99, -0.1, 34.86, 478.53)">SAUDI CENTER FOR CULTURE AND HERITAGE</text><path class="cls-2" d="M843.66,879.92c28,19.52,57.74,12.23,58.32,10,2.43-9.57,7.48-14.52,11.15-18.86a17.47,17.47,0,0,1,13.91-6.5,18,18,0,0,1,11.57,4.39,21.71,21.71,0,0,1,7.3,11.31q4.46,15.94,14.28,15.94h.93v11.42h-.93A21.81,21.81,0,0,1,950,905.15a15.49,15.49,0,0,1-6.84-6.59,18.5,18.5,0,0,1-8.28,6.77,28.19,28.19,0,0,1-11.2,2.25c-6,0-10.37-.07-13-2.22-13-13.56-32.47,15.06-65.69-8.07m69.71-3.12a27,27,0,0,0,9.65,2,12.28,12.28,0,0,0,8.38-2.84,9.45,9.45,0,0,0,3.25-7.47,10.3,10.3,0,0,0-2.54-7.12,8.1,8.1,0,0,0-6.31-2.85q-4,0-7.35,5T914.61,894.17Z" transform="translate(-478.07 -20.8)"/><path class="cls-2" d="M991.92,907.58h-.25q-10.51,0-15.34-4.92-4.82,4.92-15.21,4.92h-.25V896.16h.75q9.39,0,9.4-11.95V843.69h10.76v40.52q0,11.94,9.34,11.95h.8Z" transform="translate(-478.07 -20.8)"/><path class="cls-2" d="M1062.11,907.58h-15q-9.53,0-20.41-8-10.89,8-20.35,8h-15V896.16h15.22a28,28,0,0,0,11.62-2.23Q1000,880.87,1000,873.13q0-6.51,8.26-10.46a42.24,42.24,0,0,1,18.46-3.95,43.61,43.61,0,0,1,18.74,3.81q8.1,3.81,8.1,10.37,0,3.86-5,9.43a77.75,77.75,0,0,1-13.48,11.43,31.27,31.27,0,0,0,11.81,2.4h15.21Zm-35.37-18.69q16.63-9.84,16.63-13.12,0-5.5-16.63-5.51-16.46,0-16.45,5.39Q1010.29,879.06,1026.74,888.89Z" transform="translate(-478.07 -20.8)"/><path class="cls-2" d="M1061.86,896.16h2.66a8.14,8.14,0,0,0,5.57-1.85q2.1-1.84,3.4-6.3,3.78-12.53,8.94-18a17.1,17.1,0,0,1,13-5.48,18.25,18.25,0,0,1,13.85,6.18,21.43,21.43,0,0,1,5.75,15.15q0,10.54-6.62,16.14T1092,907.58q-8.34,0-13.29-4.8-3.78,4.8-13.55,4.8h-3.28Zm21.28-3.34a16.54,16.54,0,0,0,9.52,3.34,12.28,12.28,0,0,0,8.38-2.84,9.45,9.45,0,0,0,3.25-7.47,10.23,10.23,0,0,0-2.57-7.12,8.12,8.12,0,0,0-6.27-2.85Q1087.65,875.88,1083.14,892.82Z" transform="translate(-478.07 -20.8)"/><path class="cls-2" d="M1125.76,888.89a18,18,0,0,1-13.8,0c-7.67-3-2,6.23-2,6.23s13.68,4,18.24,1S1125.76,888.89,1125.76,888.89Z" transform="translate(-478.07 -20.8)"/><path class="cls-2" d="M702.63,446.55q-4.95-1.59-11-6.84-4.36-8.1-4.22-24.32a102.94,102.94,0,0,1,4.77-30.64,19.74,19.74,0,0,1,9.91-12.08,19.24,19.24,0,0,1,15.29-1.16,33.77,33.77,0,0,1,5.53,3.19q5.54,3.6,6.76,6.16a3,3,0,0,1-.11,1c-.14.45-.5.58-1.08.4a30.28,30.28,0,0,1-3.1-1.64,25.72,25.72,0,0,0-4.64-2.13,14.18,14.18,0,0,0-4.07-.69q-4.28-.09-8.73,4.54a28.17,28.17,0,0,0-6.52,11.07q-2.7,8.48-3.71,23.1-1.51,22.39,3.44,24,1.86.6,5.74-.66t4.88-.94a22.33,22.33,0,0,1,3.75,2.56,37,37,0,0,1,3.68,3Q709.2,448.65,702.63,446.55Zm27.62-14.83a18.3,18.3,0,0,1-3.71-2.48q-3.45-2.65-3-3.95.29-.85,3.52-2.86c2.32-1.43,3.93-2,4.84-1.7q-.69-.23,7.25,5.71C735.22,430.6,732.27,432.37,730.25,431.72Zm2.38-13.38a31.86,31.86,0,0,1-3.34-2.15q-3.25-2.4-3.44-3.75-.15-1.05,6.56-5.34a22.58,22.58,0,0,1,4.62,2.84c2.64,1.84,3.83,3.14,3.58,3.92a1.77,1.77,0,0,1-.24.33q-2.49,2.25-5,4.41C734.93,418.87,734,418.79,732.63,418.34Zm13,9q-1.78-.58-7.56-6a.35.35,0,0,1,0-.29c.09-.28,1.31-1.2,3.68-2.74,2.64-1.73,4.14-2.49,4.48-2.29a34.35,34.35,0,0,1,6.15,4.88c.66.21.87.69.64,1.43A7.22,7.22,0,0,1,751,425Q747.8,428.07,745.63,427.38Z" transform="translate(-478.07 -20.8)"/><path class="cls-2" d="M686,466.4a14.45,14.45,0,0,1-7.16-2.27q-1.44-.93-1.35-1.56.21-1.47,10.69-1.26,12.93.44,25.87.93,7.91.28,19.65.35c5.72.05,9.06.14,10,.28a20.79,20.79,0,0,1,9.31,3.29c.79.59,1.17,1,1.13,1.27-.08.59-2.55.87-7.4.82q-1.32,0-26.78-.54Q698,467.22,686,466.4Z" transform="translate(-478.07 -20.8)"/><path class="cls-2" d="M677,536a15.15,15.15,0,0,1,1.59-7.46,11.25,11.25,0,0,0,1.63-5.27q-.18-9.48-10-18.56-9.12-7.17-18.18-14.27-9.72-8-9.68-14.7.1-7.74,14-7.91,5-.06,12.77,2.8a60.63,60.63,0,0,1,12.43,6c.57.38.85.76.86,1.15,0,.9-.66,1.36-2,1.38a1.39,1.39,0,0,1-.65-.13c-3.1-1.63-5.52-2.81-7.26-3.51a35.19,35.19,0,0,0-11.41-3.08,8.69,8.69,0,0,0-5.45,1.42,4.51,4.51,0,0,0-2.22,4.41,14.88,14.88,0,0,0,5.33,9.73q5.5,4,11.08,7.91a75,75,0,0,1,14.67,13.74q6.27,7.71,6.36,15.32a14.72,14.72,0,0,1-1.51,5.91,14.27,14.27,0,0,0-1.53,5Zm45.42-21.83c-.69.22-2.1,0-4.23-.79s-3.43-1.54-3.48-2.27a14.87,14.87,0,0,1,2-4.35c1.4-2.29,2.47-3.51,3.2-3.64q.78-.35,8.17,3.7Q726.87,510.16,722.44,514.21Zm5,12.63a14.21,14.21,0,0,1-4-1.11c-2.57-.91-4-1.93-4.14-3,.12-1,.92-2.4,2.42-4.09a13.3,13.3,0,0,1,3.47-3.07,33.93,33.93,0,0,1,4.71,1.94c2.13,1,3.29,1.8,3.47,2.27,0,.43-.7,1.62-2.1,3.57C729.67,525.48,728.4,526.65,727.41,526.84Z" transform="translate(-478.07 -20.8)"/><path class="cls-2" d="M693,544.51q-12,.72-14-8.55l10.69-1.52a8.88,8.88,0,0,0,1.87,4.39c1,1.26,2,1.82,3.12,1.67q14.43-5.25,41.34-14a12.55,12.55,0,0,0,4.67-3.14s2.29,0,6.72.15q5.67.1,5.83,1.32c.05.3-.14.67-.56,1.12a4.54,4.54,0,0,1-2,1.1,5.12,5.12,0,0,0-2,1.07,8.48,8.48,0,0,0-1.58,2.73,7.36,7.36,0,0,1-.93,1.82,17.09,17.09,0,0,1-3.18.2,42.6,42.6,0,0,1-7.21-1.26q-9.29,3.48-18.5,7a103.45,103.45,0,0,1-20.09,5.53C695.68,544.31,694.3,544.45,693,544.51Z" transform="translate(-478.07 -20.8)"/><path class="cls-2" d="M693.14,570a14.55,14.55,0,0,1-7.51.31c-1.11-.26-1.71-.59-1.8-1q-.3-1.46,9.62-4.83,12.31-4,24.63-8,7.53-2.41,18.6-6.36,8.1-2.87,9.5-3.16a20.92,20.92,0,0,1,9.87-.07c1,.28,1.45.55,1.5.8q.18.88-6.68,3.3-1.25.45-25.36,8.62Q704.72,566.7,693.14,570Z" transform="translate(-478.07 -20.8)"/><path class="cls-2" d="M713.78,609.85q-7.77,2.6-22,2.85-12.15-2.55-18.07-5.74-8.09-4.31-10.68-12.13-1.07-3.18-3.48-19.49c-.1-.86.13-1.4.71-1.59a1.55,1.55,0,0,1,2.17,1.18q2.61,7.83,4.16,10.23A51.73,51.73,0,0,0,682.32,601a42.74,42.74,0,0,0,20.48,7q2.18.16,5.47-2.91a32.73,32.73,0,0,1-5.81-.37,5.44,5.44,0,0,1-4.26-3.74,8.83,8.83,0,0,1,1.23-8,8.71,8.71,0,0,1,5.44-4,32.24,32.24,0,0,1,11.81-.33q6.32,1.08,9.59,4.34,1.31,3.92-3.07,9.71Q718.9,608.15,713.78,609.85Zm-1.88-10.37q2-1.56,1-4.73a9.4,9.4,0,0,0-2.65-.35c-1.13.47-1.35,1.7-.69,3.7C709.71,598.67,710.5,599.13,711.9,599.48Z" transform="translate(-478.07 -20.8)"/><path class="cls-2" d="M729.09,670.45q-4.33-7.41-2.5-13.78,1.53-5.22,8.62-13.19a51.68,51.68,0,0,1-7.54-1.18q-4.14-1.53-7.6-7-3.84-6.18.3-8.61,7.7-4.5,17.89-.32a103.89,103.89,0,0,1,9.63,5.63,19.19,19.19,0,0,0,4.3-2.18,23,23,0,0,1,4.32-2.27c1.93-.64,3.06-.7,3.36-.18s-.48,1.41-2.23,2.88q-11.17,9.22-15.35,14.82-8,10.65-3.89,20Zm9.52-30.3,6.13-5.61a13.68,13.68,0,0,1-6.27-.8l-7.46-3a23,23,0,0,0,3.29,5.61A26.3,26.3,0,0,0,738.61,640.15ZM766,612.89c-.45.51-1.81,1-4.07,1.41-2.42.42-3.83.33-4.23-.28a14.68,14.68,0,0,1-.33-4.67c.09-2.68.4-4.29,1-4.81.59-.89,3.6-1.19,9-.89A23.08,23.08,0,0,1,766,612.89Zm10.48,8.5a14.53,14.53,0,0,1-4,1.09c-2.6.43-4.25.2-4.92-.7q-.74-1.37-.07-4.74a15,15,0,0,1,1.43-4.5A31.82,31.82,0,0,1,774,612c2.4-.11,3.8,0,4.21.37q.33.55-.06,4.14Q777.66,620.42,776.51,621.39Z" transform="translate(-478.07 -20.8)"/><path class="cls-2" d="M766.59,677.54a35.56,35.56,0,0,1-5.11,3.26c-2.75,1-4.47,1.66-5.18,1.86a12.68,12.68,0,0,1-4.81.63,38.71,38.71,0,0,1-12.92-5.54q-6.57-4.1-9.11-7.5l8.63-6.47A35.78,35.78,0,0,0,750,674.4a20.57,20.57,0,0,0,10.05,2.69,9.24,9.24,0,0,0,1-.65,14,14,0,0,0,5.51-9.12q-4.73,3.78-8.11,3.59-2-.1-4.72-2.83c-.29-.32-.55-.63-.79-.94q-4-5.31,5.08-12.09a21.45,21.45,0,0,1,9-3.42q6.86-1.36,9.38,1.58,3,3.52.59,10.75A29,29,0,0,1,766.59,677.54Zm.31-13.68a12.74,12.74,0,0,0,0-4.44,10.53,10.53,0,0,0-3.32-1c-1.39-.23-2.31-.17-2.76.17s-.29,1,.49,2C763.17,663.11,765,664.18,766.9,663.86Zm23.42-26.08c-4,1.42-6.46,2-7.47,1.73a.88.88,0,0,1-.41-.33,14.61,14.61,0,0,1-2.13-5c-.69-2.59-.61-4.21.26-4.86a1.51,1.51,0,0,1,.92-.29,29.91,29.91,0,0,0,5.21-1.17c2-.55,3.31-.46,3.85.26a2,2,0,0,1,.34.88c.32,1.73.67,3.46,1,5.18.17,1.59-.13,2.67-.89,3.24A2.52,2.52,0,0,1,790.32,637.78Z" transform="translate(-478.07 -20.8)"/><path class="cls-2" d="M770.26,718.79q-7.08-7.57-3.74-16.59,2.19-5.75,12.56-18.41a236.53,236.53,0,0,1,21.68-23.21q8.88-8.3,14.29-11.65,9.29-5.76,14.37-2.13c-.6,1.08-2.63,3.25-6.12,6.5a13.57,13.57,0,0,0-5.49-.08q-4.9,1.32-11.38,7.53-16.14,15.5-24.8,26.3-5.88,7.34-6.59,14a12.75,12.75,0,0,0,3.11,10.4Z" transform="translate(-478.07 -20.8)"/><path class="cls-2" d="M797,741.76q-3-2.82-6.92-6.78-5.39-7-5.71-11.56-9-.54-14.15-4.57l7-8.2a24.7,24.7,0,0,0,8.76,3.14,14.76,14.76,0,0,1,1.91-2.73,25.58,25.58,0,0,1,16-9.12q5.71-.84,9.44,2.34,1.67,1.43.41,4.88a20.27,20.27,0,0,1-3.57,5.76A22.18,22.18,0,0,1,795.36,723q1.56,4.51,8.66,10.58Zm4.13-24.35a11.42,11.42,0,0,0,3.16-5.08c.12-.8.23-1.63.33-2.46q-5.19-1.87-10.6,1.28c-.67.92-.8,3.08-.4,6.51A44,44,0,0,0,801.14,717.41Zm25.29-45.6a1.7,1.7,0,0,1-.25.39,12.07,12.07,0,0,1-3.66,2.59c-1.83,1-3,1.29-3.52.84s-1.08-1.84-1.86-4.37-1-4.1-.78-4.73q.66-1.57,8.3-3.76A20.54,20.54,0,0,1,826.43,671.81Zm12.77,4.6a13.71,13.71,0,0,1-3.5,2.31q-3.54,1.93-4.93,1c-.72-.68-1.23-2.14-1.51-4.38a13,13,0,0,1-.07-4.68,26.7,26.7,0,0,1,4.65-2.31c2.13-.88,3.44-1.23,3.91-1.05s.81,1.63,1.35,4C839.68,673.83,839.72,675.54,839.2,676.41Z" transform="translate(-478.07 -20.8)"/><path class="cls-2" d="M818.51,756.41c-1.24-.86-2.59-2.76-4.07-5.72s-2.75-4.79-3.81-5.53q-1.32-.92-6-1.19a14.56,14.56,0,0,1-7.53-2.26l6.22-9a29.65,29.65,0,0,0,7.48,2.34,23.37,23.37,0,0,1,4.64.77,3.81,3.81,0,0,1,1,.52q1.59,1.1,4.1,5.57t4.14,5.6Zm14-49.35c-1.07,1-2.06,1.87-3,2.6-2.09,1.66-3.6,2.4-4.53,2.24s-1.82-2.8-3.08-8a22.52,22.52,0,0,1,3.86-3.41q3.85-2.94,4.86-2.25.17.21.24.33,1.36,3,2.78,6C833.7,705,833.32,705.82,832.46,707.06Zm12.44-9.79q-1.26,1.82-7.89,5.6a.36.36,0,0,1-.28,0c-.21-.15-.71-1.58-1.5-4.28-.86-3.13-1.15-4.82-.89-5a47.26,47.26,0,0,1,6.36-4.29,1.71,1.71,0,0,1,1.92-.17,6.85,6.85,0,0,1,1.57,2.59C845.56,694.11,845.79,696,844.9,697.27Zm.65,14.77a18.38,18.38,0,0,1-3.47,3c-2.3,1.73-3.82,2.33-4.56,1.82q-.75-.51-1.77-4.23-1.15-4-.35-5.15,1.64-1,7.14-4.86c.16-.15.38-.13.66.07.81.56,1.58,2,2.29,4.27Q846.56,710.61,845.55,712Z" transform="translate(-478.07 -20.8)"/><path class="cls-2" d="M838.62,768a13.89,13.89,0,0,1-4.79-7.66q-1.05-5,1-13.55a19.54,19.54,0,0,1-8,7.86q-5.64,3.23-8.26,1.71L824,747q5.13,3,8-1.91a97.91,97.91,0,0,0,4.69-10.65q4.53-11.13,6.81-16.34,2.7-6.33,5.43-12.56,2.26-5.07,5.91-11.59a25.28,25.28,0,0,1,4.59-6c1.72-1.61,2.87-2.25,3.42-1.92s.19,1.56-1,3.77q-3.56,6.51-10.49,24a189.81,189.81,0,0,0-9,29.11q-2.74,12.16,1.74,15.74Z" transform="translate(-478.07 -20.8)"/><path class="cls-2" d="M853.75,761.31q-6.29,10.22-15,6.56l4.9-9.62a8.88,8.88,0,0,0,4.66,1c1.62-.1,2.67-.63,3.16-1.6q4-14.8,12.28-41.88a12.52,12.52,0,0,0,.11-5.63s1.35-1.84,4-5.42q3.33-4.56,4.43-4c.26.13.46.5.59,1.1a4.44,4.44,0,0,1-.24,2.25,5.21,5.21,0,0,0-.3,2.29,8.64,8.64,0,0,0,1.33,2.86,7.67,7.67,0,0,1,1,1.81,17.39,17.39,0,0,1-1.67,2.72,42.47,42.47,0,0,1-5.16,5.17q-2.5,9.6-4.91,19.17a103.23,103.23,0,0,1-7,19.62C855.16,759,854.48,760.17,853.75,761.31Z" transform="translate(-478.07 -20.8)"/><path class="cls-2" d="M943,762.59q-1.8,6.18-4,8c-.75.59-1.32.83-1.69.73s-.69-.61-1-1.51c-.54-1.82-2.14-3.12-4.77-3.88q-2.47-.72-11.76,4.43-9.93,5.5-11.17,9.82a3,3,0,0,0,.32,2.6L922.61,789c1.44,1.18,2.9,2.35,4.35,3.49a6.32,6.32,0,0,1,1.28,6.47q-.75,2.55-6.56,9.87-7.36,6.18-22.09,8.61-13.76,2.3-22.29-.18-9.16-2.67-13.07-13a29.14,29.14,0,0,1-.87-18.93q1-3.49,6.92-12.27,6-9,8-9.19c.45,0,.65.21.61.65a4,4,0,0,1-.56,1.36,5.18,5.18,0,0,1-1,1.24q-4.06,3.55-7.09,14a19.91,19.91,0,0,0,2.38,16.53q4.46,7.3,11.6,9,8.26,2,22.41-.46,13.64-2.4,14.5-5.33a.56.56,0,0,0,0-.41q.4-1.38-4-3.27l-7.35-3.08q-3.86-2.21-5-3a7.31,7.31,0,0,1-3.13-5.17,25.24,25.24,0,0,1,.59-2.47q3.28-11.3,16.41-21.16,12.45-9.37,20.91-8.48Q944.3,758,943,762.59Zm-62.1,73.54q0,1.1-2.06,4t-3.16,2.67a15.86,15.86,0,0,1-3.44-3.16q-2.75-3-2.69-4.17c0-.42.88-1.64,2.81-3.65a26.74,26.74,0,0,1,3.21-3.2A25.36,25.36,0,0,1,880.86,836.13Zm13.64-1a13.94,13.94,0,0,1-2.34,3.65c-1.63,2.1-3,3.05-4.12,2.87q-1.37-.6-3.12-3.35a12.54,12.54,0,0,1-2-4.37,27.84,27.84,0,0,1,3.27-3.89c1.61-1.68,2.69-2.57,3.26-2.67.41.12,1.34,1.15,2.79,3.11Q894.58,833.68,894.5,835.15Z" transform="translate(-478.07 -20.8)"/><path class="cls-2" d="M974.54,791.69a17.34,17.34,0,0,1-3.88,9.26q-1.93,2.41-10.86,4.17-8.07,1.57-12.17,1.16c-3-.31-4.88-2.06-5.81-5.24a14.85,14.85,0,0,1,.33-8.14c.52-1.29,1.25-1.89,2.2-1.8a1.61,1.61,0,0,1,.62.2c.73,1.77,2.69,2.83,5.89,3.16a45.31,45.31,0,0,0,11.1-.81q8-1.26,8.16-3.08.24-2.33-4.33-10.12-5.07-8.62-9.17-9.05a3.51,3.51,0,0,0-2.46.66.85.85,0,0,1-.47.15c-.56-.06-.93-.84-1.12-2.34a11.83,11.83,0,0,1,.09-4q1.64-7.6,7.59-7,3.27.35,8.77,9.73Q975.62,780,974.54,791.69Z" transform="translate(-478.07 -20.8)"/><path class="cls-2" d="M1014.81,802.94l-2.9.1q-.39,5.1-6.19,14Q998.58,828,990,831.17a116.6,116.6,0,0,1-16.4-2.46c-5.85-1.26-8.79-2.23-8.81-2.93,0-.25.56-.41,1.72-.45l10.76-.26a31.32,31.32,0,0,0,9-1.51q5.16-1.74,12.74-8.76t9.21-11.62c-2.44.26-4.07.41-4.88.44q-12,.43-12.38-10.34-.13-3.64,2.75-9.53,3.24-6.69,6.88-7.48,2-.39,5.91,4.6a33.66,33.66,0,0,1,5.77,11.36l2.12-.07Zm-11.48-10.64a6.76,6.76,0,0,0-1.16-3.4c-.87-1.4-1.86-2-3-1.78q-2.57.23-2.76,3.68a8.6,8.6,0,0,0,4.19,1.73C1002,792.74,1002.91,792.67,1003.33,792.3Z" transform="translate(-478.07 -20.8)"/><path class="cls-2" d="M1053.24,796.53q-7,1.15-11.51-.56a64.07,64.07,0,0,1-8.68-5.16q-6.45,6.45-8,7.69a22.14,22.14,0,0,1-10.18,4.43l-1.74-10.64q10.29-1.69,15-5.68-4.62-3.47-6.52-3.15a20.82,20.82,0,0,0-5.19,2.23c.42-5.21,1.07-8.91,2-11.13q2.68-4.32,10.07-5.52a26.16,26.16,0,0,1,8.89.45q7.28,1.38,7.89,5.17a7.45,7.45,0,0,1-1.13,5.05c-1.06,1.54-2.11,3-3.18,4.54a20.52,20.52,0,0,0,10.63,1.89Z" transform="translate(-478.07 -20.8)"/><path class="cls-2" d="M1067.9,792.4l-14.73,3.75-2.66-10.46,14.73-3.75Z" transform="translate(-478.07 -20.8)"/><path class="cls-2" d="M1067.9,792.4l-14.73,3.75-2.66-10.46,14.73-3.75Z" transform="translate(-478.07 -20.8)"/><path class="cls-2" d="M1135.89,766.57a30,30,0,0,1-5.33.94,7.4,7.4,0,0,1-4.26-1.2q-3.13-2.37-6.21-4.75a60.05,60.05,0,0,1-.59,7.69q-1.18,3.74-6.13,5.76-4,1.68-9.58-.41a27.52,27.52,0,0,1-4.34,5.87,21.93,21.93,0,0,1-6,3.33q-12.23,5-13.45-.5-2.12,6.21-11.36,11l-4.11-10a29.71,29.71,0,0,0,10.73-8.29,18.63,18.63,0,0,0,2.78-4.59,7.09,7.09,0,0,1,2.21-3.09.81.81,0,0,1,1.36.42c.44,1.08.46,2.86,0,5.33.43.58,1.5.75,3.22.54a16.39,16.39,0,0,0,4.92-1.43,74.4,74.4,0,0,0,7.84-4.15,7.81,7.81,0,0,0,3.28-6.07,10.52,10.52,0,0,1,1.94-4.24,4.64,4.64,0,0,1,1.1-.73c.51-.21.86-.1,1,.34a10,10,0,0,1,.22,2.72,5.81,5.81,0,0,0,.52,2.95,8,8,0,0,0,5-.43q4.75-2,4.94-5.77.25-6.29,1.5-8.7a1.7,1.7,0,0,1,.56-.66c.32-.13.6.11.85.71a23.54,23.54,0,0,1,1.07,6,14.64,14.64,0,0,0,12.16,1.45Z" transform="translate(-478.07 -20.8)"/><path class="cls-2" d="M1137.71,748.49q5.14,10.83-2.69,16.2l-5.4-9.34A9,9,0,0,0,1133,752c.79-1.41.92-2.59.38-3.52q-10.26-11.41-28.46-33.1a12.61,12.61,0,0,0-4.66-3.16s-.81-2.13-2.37-6.29q-2-5.28-1-5.9a1.57,1.57,0,0,1,1.25.1,4.47,4.47,0,0,1,1.75,1.43,5.4,5.4,0,0,0,1.76,1.5,9,9,0,0,0,3.13.44,7.19,7.19,0,0,1,2,.18,15.84,15.84,0,0,1,1.37,2.88,41.12,41.12,0,0,1,1.54,7.15q6.69,7.32,13.4,14.54a103.23,103.23,0,0,1,12.64,16.57C1136.51,746,1137.15,747.26,1137.71,748.49Z" transform="translate(-478.07 -20.8)"/><path class="cls-2" d="M1161.36,738.79a14.36,14.36,0,0,1,3.07,6.85c.19,1.13.1,1.82-.26,2.05q-1.23.82-8.06-7.13-8.29-9.94-16.54-19.91-5-6.09-12.82-14.9-5.67-6.45-6.47-7.64a21,21,0,0,1-3.74-9.14c-.09-1,0-1.55.19-1.69q.75-.49,5.55,5,.88,1,17.44,20.33Q1154,729.27,1161.36,738.79Z" transform="translate(-478.07 -20.8)"/><path class="cls-2" d="M1183,660.81c1.91,3.43,2.9,5.81,3,7.12a1.41,1.41,0,0,1-.27.36,15.25,15.25,0,0,1-4.67,2.92c-2.49,1.11-4.13,1.28-4.94.49a1.55,1.55,0,0,1-.42-.87,30.84,30.84,0,0,0-1.91-4.93c-.85-1.91-1-3.18-.38-3.79a1.79,1.79,0,0,1,.82-.47q2.5-.89,5-1.81c1.55-.47,2.66-.37,3.35.29A3.86,3.86,0,0,1,1183,660.81Zm43.06,17.39-7.79,5.85q-8.7,8.81-8.84,26.42,1.14,15,2.33,30,1.17,16.18-4.29,21.49-6.32,6.16-17.7-5-4.12-4-8.29-12.62a64.79,64.79,0,0,1-5.44-14.88c-.23-1-.15-1.71.24-2.11s.89-.39,1.42.13a1.63,1.63,0,0,1,.42.68,51,51,0,0,0,11,19.15,14,14,0,0,0,5.69,3.85q3.59,1.17,5.71-1,3.24-3.32,2.74-12.56-.86-10.2-1.78-20.4a94.45,94.45,0,0,1,2-26,42,42,0,0,1,3.81-8.72c2.25-4.11,9.28-10.08,11.08-11.92Z" transform="translate(-478.07 -20.8)"/><path class="cls-2" d="M1267.12,522.31q7.26,5.67,6.88,9.75-.07.74-2.86,13-16.62,72.79-32.87,113.49l-12.22,19.7-7.71-7.55c4.34-10.85,13.42-25.53,17.05-35.78q6.79-19.29,12.92-41.81,11.28-41.91,11.36-42.3,1.86-7.44,5.71-20.41-3.68-1.32-9.11,5.11a30.18,30.18,0,0,0-4.79,6.9q1.13-2.82-9.3,32.84t-18.84,56.73a144.9,144.9,0,0,1-9.34,19.86q-5.25,8.79-9.79,7-2.1-.84-7.19-8.7a98.7,98.7,0,0,1-8.21-15.28q-6.39-15.39-5.48-43.41a5.34,5.34,0,0,1,.26-1.7c.19-.47.49-.63.89-.47a10.55,10.55,0,0,1,2.45,2.43q1.38,2,3.64,4.93,0,6.72,1.24,21.93,3.11,21.15,8.56,31.31,7.11-5,14.33-23.07,1.65-4.12,8.46-23.47,5-14.1,18.52-61.08,1-3.41,2-6a74.33,74.33,0,0,1,5.35-9.17q8.51-9,15.5-6.23A10.14,10.14,0,0,1,1267.12,522.31Z" transform="translate(-478.07 -20.8)"/><path class="cls-2" d="M1283.58,461.51l-.11,4q-.39,12.36,11.48,25.38,11,10.22,22.15,20.44Q1329,522.42,1328.57,530q-.43,8.81-16.35,8.39-5.79-.15-14.67-3.61a65.3,65.3,0,0,1-14.11-7.21c-.85-.58-1.27-1.15-1.25-1.71s.39-.89,1.13-.87a1.71,1.71,0,0,1,.77.21,50.92,50.92,0,0,0,21.09,6.56,14,14,0,0,0,6.79-1q3.42-1.58,3.5-4.61.12-4.64-6.53-11.07-7.56-6.9-15.17-13.74a94.25,94.25,0,0,1-16.24-20.42,54.07,54.07,0,0,1-4.74-19.65Z" transform="translate(-478.07 -20.8)"/><path class="cls-2" d="M1266.85,429.09a18,18,0,0,1,6-.19c2,.2,3,.66,3.08,1.39a7.45,7.45,0,0,1-.36,2.06q-1.14,4.06-3.53,11.82a75.61,75.61,0,0,1,5.49,7.82q4.23,6.69,4.61,9.5l-10.68,1.5a18.33,18.33,0,0,0-2.73-7.29,88,88,0,0,1-5.21-9.1q-15.87,5.22-49.74,15.5a17.84,17.84,0,0,1-7.16,2.83,34.68,34.68,0,0,1-4.11-.34,16.51,16.51,0,0,1-4.36-1.6c-.66-.34-1-.6-1-.77a17.6,17.6,0,0,1,3-1.2,7.42,7.42,0,0,0,4.57-3.9,2.71,2.71,0,0,1,2.33-1.69,11.41,11.41,0,0,1,4.48.61c1.36.37,2.73.76,4.1,1.18q7.46-2.55,29.58-9.49,12.29-3.68,15.17-6.48a8.94,8.94,0,0,0,1.9-3.78c.87-2.86,1.57-4.89,2.1-6.12A3.62,3.62,0,0,1,1266.85,429.09Z" transform="translate(-478.07 -20.8)"/><path class="cls-2" d="M1264.51,405.05a14.33,14.33,0,0,1,7.49-.57c1.12.21,1.73.52,1.84.94q.35,1.44-9.44,5.17-12.17,4.44-24.34,8.83-7.44,2.68-18.35,7-8,3.17-9.38,3.5a20.87,20.87,0,0,1-9.87.43c-1-.25-1.46-.5-1.52-.75-.14-.58,2-1.76,6.56-3.54q1.21-.49,25-9.53Q1253.05,408.79,1264.51,405.05Z" transform="translate(-478.07 -20.8)"/></g></svg>